<svg xmlns="http://www.w3.org/2000/svg" width="200" height="200" viewBox="0 0 200 200"><defs><style>.cls-1{fill:#3b5972;}.cls-2{opacity:0.1;}.cls-3{fill:#1c2b35;}.cls-4{fill:#52b2e2;}.cls-5{opacity:0.36;}.cls-6{fill:#fff;}</style></defs><title>frem knap</title><g id="game_over"><circle class="cls-1" cx="100" cy="100" r="95.5"/><g class="cls-2"><line class="cls-3" x1="142.68" y1="112.54" x2="27.35" y2="112.54"/><path class="cls-3" d="M27.35,117.63H142.68a5.09,5.09,0,0,0,0-10.18H27.35a5.09,5.09,0,0,0,0,10.18Z"/><polygon class="cls-3" points="121.17 145.04 149.83 128.96 178.5 112.87 150.24 96.09 121.97 79.3 121.57 112.17 121.17 145.04"/></g><line class="cls-4" x1="136.89" y1="102.56" x2="31.9" y2="102.56"/><path class="cls-4" d="M31.9,107.2h105a4.64,4.64,0,0,0,0-9.27H31.9a4.64,4.64,0,1,0,0,9.27Z"/><polygon class="cls-4" points="117.3 132.15 143.4 117.51 169.5 102.86 143.77 87.58 118.04 72.3 117.67 102.23 117.3 132.15"/><g class="cls-5"><path class="cls-6" d="M30.38,73.05a4.51,4.51,0,0,1-2.69-5.77A72.6,72.6,0,0,1,120.62,24a4.5,4.5,0,0,1-3.08,8.46,63.57,63.57,0,0,0-81.39,38A4.51,4.51,0,0,1,30.38,73.05Z"/></g></g></svg>