<svg xmlns="http://www.w3.org/2000/svg" xmlns:xlink="http://www.w3.org/1999/xlink" width="60" height="60" viewBox="0 0 60 60"><defs><style>.cls-1{fill:none;}.cls-2{opacity:0.55;}.cls-3{clip-path:url(#clip-path);}.cls-4{fill:#b73370;}.cls-5{fill:#b63471;}.cls-6{fill:#b53571;}.cls-7{fill:#b43672;}.cls-8{fill:#b33773;}.cls-9{fill:#b23874;}.cls-10{fill:#b23974;}.cls-11{fill:#b13a75;}.cls-12{fill:#b03b76;}.cls-13{fill:#af3c76;}.cls-14{fill:#ae3d77;}.cls-15{fill:#ad3e78;}.cls-16{fill:#ac3f78;}.cls-17{fill:#ab4079;}.cls-18{fill:#aa417a;}.cls-19{fill:#a9427b;}.cls-20{fill:#a9437b;}.cls-21{fill:#a8447c;}.cls-22{fill:#a7457d;}.cls-23{fill:#a6467d;}.cls-24{fill:#a5477e;}.cls-25{fill:#a4487f;}.cls-26{fill:#a3497f;}.cls-27{fill:#a24a80;}.cls-28{fill:#a14b81;}.cls-29{fill:#a04c82;}.cls-30{fill:#a04d82;}.cls-31{fill:#9f4e83;}.cls-32{fill:#9e4f84;}.cls-33{fill:#9d5084;}.cls-34{fill:#9c5185;}.cls-35{fill:#9b5286;}.cls-36{fill:#9a5387;}.cls-37{fill:#995487;}.cls-38{fill:#985588;}.cls-39{fill:#975689;}.cls-40{fill:#975789;}.cls-41{fill:#96588a;}.cls-42{fill:#95598b;}.cls-43{fill:#945a8b;}.cls-44{fill:#935b8c;}.cls-45{fill:#925c8d;}.cls-46{fill:#915d8e;}.cls-47{fill:#905e8e;}.cls-48{fill:#8f5f8f;}.cls-49{fill:#8e6090;}.cls-50{fill:#8e6190;}.cls-51{fill:#8d6291;}.cls-52{fill:#8c6392;}.cls-53{fill:#8b6493;}.cls-54{fill:#8a6593;}.cls-55{fill:#896694;}.cls-56{fill:#886795;}.cls-57{fill:#876895;}.cls-58{fill:#866996;}.cls-59{fill:#856a97;}.cls-60{fill:#856b97;}.cls-61{fill:#846c98;}.cls-62{fill:#836d99;}.cls-63{fill:#826e9a;}.cls-64{fill:#816f9a;}.cls-65{fill:#80709b;}.cls-66{fill:#7f719c;}.cls-67{fill:#7e729c;}.cls-68{fill:#7d739d;}.cls-69{fill:#7c749e;}.cls-70{fill:#7c759e;}.cls-71{fill:#7b769f;}.cls-72{fill:#7a77a0;}.cls-73{fill:#7978a1;}.cls-74{fill:#7879a1;}.cls-75{fill:#777aa2;}.cls-76{fill:#767ba3;}.cls-77{fill:#757ca3;}.cls-78{fill:#747da4;}.cls-79{fill:#737ea5;}.cls-80{fill:#727fa6;}.cls-81{fill:#7280a6;}.cls-82{fill:#7181a7;}.cls-83{fill:#7082a8;}.cls-84{fill:#6f83a8;}.cls-85{fill:#6e84a9;}.cls-86{fill:#6d85aa;}.cls-87{fill:#6c86aa;}.cls-88{fill:#6b87ab;}.cls-89{fill:#6a88ac;}.cls-90{fill:#6989ad;}.cls-91{fill:#698aad;}.cls-92{fill:#688bae;}.cls-93{fill:#678caf;}.cls-94{fill:#668daf;}.cls-95{fill:#658eb0;}.cls-96{fill:#648fb1;}.cls-97{fill:#6390b2;}.cls-98{fill:#6291b2;}.cls-99{fill:#6192b3;}.cls-100{fill:#6093b4;}.cls-101{fill:#6094b4;}.cls-102{fill:#5f95b5;}.cls-103{fill:#5e96b6;}.cls-104{fill:#5d97b6;}.cls-105{fill:#5c98b7;}.cls-106{fill:#5b9ab8;}.cls-107{fill:#5a9bb9;}.cls-108{fill:#599cb9;}.cls-109{fill:#589dba;}.cls-110{fill:#579ebb;}.cls-111{fill:#579fbb;}.cls-112{fill:#56a0bc;}.cls-113{fill:#55a1bd;}.cls-114{fill:#54a2bd;}.cls-115{fill:#53a3be;}.cls-116{fill:#52a4bf;}.cls-117{fill:#51a5c0;}.cls-118{fill:#50a6c0;}.cls-119{fill:#4fa7c1;}.cls-120{fill:#4ea8c2;}.cls-121{fill:#4ea9c2;}.cls-122{fill:#4daac3;}.cls-123{fill:#4cabc4;}.cls-124{fill:#4bacc5;}.cls-125{fill:#4aadc5;}.cls-126{fill:#49aec6;}.cls-127{fill:#48afc7;}.cls-128{fill:#47b0c7;}.cls-129{fill:#46b1c8;}.cls-130{fill:#45b2c9;}.cls-131{fill:#45b3c9;}.cls-132{fill:#44b4ca;}.cls-133{fill:#43b5cb;}.cls-134{fill:#42b6cc;}.cls-135{fill:#41b7cc;}.cls-136{fill:#40b8cd;}.cls-137{fill:#3fb9ce;}.cls-138{fill:#3ebace;}.cls-139{fill:#3dbbcf;}.cls-140{fill:#3cbcd0;}.cls-141{fill:#3bbdd1;}.cls-142{fill:#3bbed1;}.cls-143{fill:#3abfd2;}.cls-144{fill:#39c0d3;}.cls-145{fill:#38c1d3;}.cls-146{fill:#37c2d4;}.cls-147{fill:#36c3d5;}.cls-148{fill:#35c4d5;}.cls-149{fill:#34c5d6;}.cls-150{fill:#33c6d7;}.cls-151{fill:#32c7d8;}.cls-152{fill:#32c8d8;}.cls-153{fill:#31c9d9;}.cls-154{fill:#30cada;}.cls-155{fill:#2fcbda;}.cls-156{fill:#2eccdb;}.cls-157{fill:#2dcddc;}.cls-158{fill:#2ccedc;}.cls-159{fill:#2bcfdd;}.cls-160{fill:#2ad0de;}.cls-161{fill:#29d1df;}.cls-162{fill:#29d2df;}.cls-163{fill:#28d3e0;}.cls-164{fill:#27d4e1;}.cls-165{fill:#26d5e1;}.cls-166{fill:#25d6e2;}.cls-167{fill:#24d7e3;}.cls-168{fill:#23d8e4;}.cls-169{fill:#22d9e4;}.cls-170{fill:#21dae5;}.cls-171{fill:#20dbe6;}.cls-172{fill:#20dce6;}.cls-173{fill:#1fdde7;}.cls-174{fill:#1edee8;}.cls-175{fill:#1ddfe8;}.cls-176{fill:#1ce0e9;}.cls-177{fill:#1be1ea;}.cls-178{fill:#1ae2eb;}.cls-179{fill:#19e3eb;}.cls-180{fill:#18e4ec;}.cls-181{fill:#17e5ed;}.cls-182{fill:#17e6ed;}.cls-183{fill:#16e7ee;}.cls-184{fill:#15e8ef;}.cls-185{fill:#14e9f0;}.cls-186{fill:#13eaf0;}.cls-187{fill:#12ebf1;}.cls-188{fill:#11ecf2;}.cls-189{fill:#10edf2;}.cls-190{fill:#0feef3;}.cls-191{fill:#0eeff4;}.cls-192{fill:#0ef0f4;}.cls-193{fill:#0df1f5;}.cls-194{fill:#0cf2f6;}.cls-195{fill:#0bf3f7;}.cls-196{fill:#0af4f7;}.cls-197{fill:#09f5f8;}.cls-198{fill:#08f6f9;}.cls-199{fill:#07f7f9;}.cls-200{fill:#06f8fa;}.cls-201{fill:#05f9fb;}.cls-202{fill:#05fafb;}.cls-203{fill:#04fbfc;}.cls-204{fill:#03fcfd;}.cls-205{fill:#02fdfe;}.cls-206{fill:#01fefe;}.cls-207{fill:aqua;}.cls-208{fill:#02fdfd;}.cls-209{fill:#03fcfc;}.cls-210{fill:#04fbfb;}.cls-211{fill:#05fafa;}.cls-212{fill:#06f9f9;}.cls-213{fill:#07f8f8;}.cls-214{fill:#08f7f8;}.cls-215{fill:#09f6f7;}.cls-216{fill:#0af5f6;}.cls-217{fill:#0bf4f5;}.cls-218{fill:#0cf3f4;}.cls-219{fill:#0df2f3;}.cls-220{fill:#0ef1f2;}.cls-221{fill:#0ff0f1;}.cls-222{fill:#10eff0;}.cls-223{fill:#11efef;}.cls-224{fill:#12eeee;}.cls-225{fill:#13eded;}.cls-226{fill:#14ecec;}.cls-227{fill:#15ebeb;}.cls-228{fill:#16eaea;}.cls-229{fill:#17e9e9;}.cls-230{fill:#18e8e9;}.cls-231{fill:#19e7e8;}.cls-232{fill:#1ae6e7;}.cls-233{fill:#1be5e6;}.cls-234{fill:#1ce4e5;}.cls-235{fill:#1de3e4;}.cls-236{fill:#1ee2e3;}.cls-237{fill:#1fe1e2;}.cls-238{fill:#20e0e1;}.cls-239{fill:#21dfe0;}.cls-240{fill:#22dedf;}.cls-241{fill:#23ddde;}.cls-242{fill:#24dcdd;}.cls-243{fill:#25dbdc;}.cls-244{fill:#26dadb;}.cls-245{fill:#27d9db;}.cls-246{fill:#28d8da;}.cls-247{fill:#29d7d9;}.cls-248{fill:#2ad6d8;}.cls-249{fill:#2bd5d7;}.cls-250{fill:#2cd4d6;}.cls-251{fill:#2dd3d5;}.cls-252{fill:#2ed2d4;}.cls-253{fill:#2fd1d3;}.cls-254{fill:#30d0d2;}.cls-255{fill:#31cfd1;}.cls-256{fill:#32ced0;}.cls-257{fill:#33cecf;}.cls-258{fill:#34cdce;}.cls-259{fill:#35cccd;}.cls-260{fill:#36cbcc;}.cls-261{fill:#37cacc;}.cls-262{fill:#38c9cb;}.cls-263{fill:#39c8ca;}.cls-264{fill:#3ac7c9;}.cls-265{fill:#3bc6c8;}.cls-266{fill:#3cc5c7;}.cls-267{fill:#3dc4c6;}.cls-268{fill:#3ec3c5;}.cls-269{fill:#3fc2c4;}.cls-270{fill:#40c1c3;}.cls-271{fill:#41c0c2;}.cls-272{fill:#42bfc1;}.cls-273{fill:#43bec0;}.cls-274{fill:#44bdbf;}.cls-275{fill:#45bcbe;}.cls-276{fill:#46bbbd;}.cls-277{fill:#47babd;}.cls-278{fill:#48b9bc;}.cls-279{fill:#49b8bb;}.cls-280{fill:#4ab7ba;}.cls-281{fill:#4bb6b9;}.cls-282{fill:#4cb5b8;}.cls-283{fill:#4db4b7;}.cls-284{fill:#4eb3b6;}.cls-285{fill:#4fb2b5;}.cls-286{fill:#50b1b4;}.cls-287{fill:#51b0b3;}.cls-288{fill:#52afb2;}.cls-289{fill:#53aeb1;}.cls-290{fill:#54aeb0;}.cls-291{fill:#55adaf;}.cls-292{fill:#56acaf;}.cls-293{fill:#57abae;}.cls-294{fill:#58aaad;}.cls-295{fill:#59a9ac;}.cls-296{fill:#5aa8ab;}.cls-297{fill:#5ba7aa;}.cls-298{fill:#5ca6a9;}.cls-299{fill:#5da5a8;}.cls-300{fill:#5ea4a7;}.cls-301{fill:#5fa3a6;}.cls-302{fill:#60a2a5;}.cls-303{fill:#61a1a4;}.cls-304{fill:#62a0a3;}.cls-305{fill:#639fa2;}.cls-306{fill:#649ea1;}.cls-307{fill:#659da0;}.cls-308{fill:#669ca0;}.cls-309{fill:#679b9f;}.cls-310{fill:#689a9e;}.cls-311{fill:#69999d;}.cls-312{fill:#6a989c;}.cls-313{fill:#6b979b;}.cls-314{fill:#6c969a;}.cls-315{fill:#6d9599;}.cls-316{fill:#6e9498;}.cls-317{fill:#6f9397;}.cls-318{fill:#709296;}.cls-319{fill:#719195;}.cls-320{fill:#729094;}.cls-321{fill:#738f93;}.cls-322{fill:#748e92;}.cls-323{fill:#758e92;}.cls-324{fill:#778d91;}.cls-325{fill:#788c90;}.cls-326{fill:#798b8f;}.cls-327{fill:#7a8a8e;}.cls-328{fill:#7b898d;}.cls-329{fill:#7c888c;}.cls-330{fill:#7d878b;}.cls-331{fill:#7e868a;}.cls-332{fill:#7f8589;}.cls-333{fill:#808488;}.cls-334{fill:#818387;}.cls-335{fill:#828286;}.cls-336{fill:#838185;}.cls-337{fill:#848084;}.cls-338{fill:#857f83;}.cls-339{fill:#867e83;}.cls-340{fill:#877d82;}.cls-341{fill:#887c81;}.cls-342{fill:#897b80;}.cls-343{fill:#8a7a7f;}.cls-344{fill:#8b797e;}.cls-345{fill:#8c787d;}.cls-346{fill:#8d777c;}.cls-347{fill:#8e767b;}.cls-348{fill:#8f757a;}.cls-349{fill:#907479;}.cls-350{fill:#917378;}.cls-351{fill:#927277;}.cls-352{fill:#937176;}.cls-353{fill:#947075;}.cls-354{fill:#956f74;}.cls-355{fill:#966e74;}.cls-356{fill:#976d73;}.cls-357{fill:#986d72;}.cls-358{fill:#996c71;}.cls-359{fill:#9a6b70;}.cls-360{fill:#9b6a6f;}.cls-361{fill:#9c696e;}.cls-362{fill:#9d686d;}.cls-363{fill:#9e676c;}.cls-364{fill:#9f666b;}.cls-365{fill:#a0656a;}.cls-366{fill:#a16469;}.cls-367{fill:#a26368;}.cls-368{fill:#a36267;}.cls-369{fill:#a46166;}.cls-370{fill:#a56066;}.cls-371{fill:#a65f65;}.cls-372{fill:#a75e64;}.cls-373{fill:#a85d63;}.cls-374{fill:#a95c62;}.cls-375{fill:#aa5b61;}.cls-376{fill:#ab5a60;}.cls-377{fill:#ac595f;}.cls-378{fill:#ad585e;}.cls-379{fill:#ae575d;}.cls-380{fill:#af565c;}.cls-381{fill:#b0555b;}.cls-382{fill:#b1545a;}.cls-383{fill:#b25359;}.cls-384{fill:#b35258;}.cls-385{fill:#b45157;}.cls-386{fill:#b55057;}.cls-387{fill:#b64f56;}.cls-388{fill:#b74e55;}.cls-389{fill:#b84d54;}.cls-390{fill:#b94d53;}.cls-391{fill:#ba4c52;}.cls-392{fill:#bb4b51;}.cls-393{fill:#bc4a50;}.cls-394{fill:#bd494f;}.cls-395{fill:#be484e;}.cls-396{fill:#bf474d;}.cls-397{fill:#c0464c;}.cls-398{fill:#c1454b;}.cls-399{fill:#c2444a;}.cls-400{fill:#c34349;}.cls-401{fill:#c44249;}.cls-402{fill:#c54148;}.cls-403{fill:#c64047;}.cls-404{fill:#c73f46;}.cls-405{fill:#c83e45;}.cls-406{fill:#c93d44;}.cls-407{fill:#ca3c43;}.cls-408{fill:#cb3b42;}.cls-409{fill:#cc3a41;}.cls-410{fill:#cd3940;}.cls-411{fill:#ce383f;}.cls-412{fill:#cf373e;}.cls-413{fill:#d0363d;}.cls-414{fill:#d1353c;}.cls-415{fill:#d2343b;}.cls-416{fill:#d3333a;}.cls-417{fill:#d4323a;}.cls-418{fill:#d53139;}.cls-419{fill:#d63038;}.cls-420{fill:#d72f37;}.cls-421{fill:#d82e36;}.cls-422{fill:#d92d35;}.cls-423{fill:#da2c34;}.cls-424{fill:#db2c33;}.cls-425{fill:#dc2b32;}.cls-426{fill:#dd2a31;}.cls-427{fill:#de2930;}.cls-428{fill:#df282f;}.cls-429{fill:#e0272e;}.cls-430{fill:#e1262d;}.cls-431{fill:#e2252c;}.cls-432{fill:#e3242b;}.cls-433{fill:#e4232b;}.cls-434{fill:#e5222a;}.cls-435{fill:#e62129;}.cls-436{fill:#e72028;}.cls-437{fill:#e81f27;}.cls-438{fill:#e91e26;}.cls-439{fill:#ea1d25;}.cls-440{fill:#eb1c24;}.cls-441{fill:#eb1d24;}.cls-442{fill:#eb1e24;}.cls-443{fill:#eb1f24;}.cls-444{fill:#eb2024;}.cls-445{fill:#eb2124;}.cls-446{fill:#eb2224;}.cls-447{fill:#ec2324;}.cls-448{fill:#ec2424;}.cls-449{fill:#ec2524;}.cls-450{fill:#ec2624;}.cls-451{fill:#ec2724;}.cls-452{fill:#ec2824;}.cls-453{fill:#ec2924;}.cls-454{fill:#ec2a24;}.cls-455{fill:#ec2b24;}.cls-456{fill:#ec2c24;}.cls-457{fill:#ec2d24;}.cls-458{fill:#ec2e24;}.cls-459{fill:#ec2f24;}.cls-460{fill:#ec3024;}.cls-461{fill:#ed3124;}.cls-462{fill:#ed3224;}.cls-463{fill:#ed3324;}.cls-464{fill:#ed3424;}.cls-465{fill:#ed3524;}.cls-466{fill:#ed3624;}.cls-467{fill:#ed3724;}.cls-468{fill:#ed3824;}.cls-469{fill:#ed3924;}.cls-470{fill:#ed3a24;}.cls-471{fill:#ed3b24;}.cls-472{fill:#ed3c24;}.cls-473{fill:#ed3d24;}.cls-474{fill:#ed3e24;}.cls-475{fill:#ee3f23;}.cls-476{fill:#ee4023;}.cls-477{fill:#ee4123;}.cls-478{fill:#ee4223;}.cls-479{fill:#ee4323;}.cls-480{fill:#ee4423;}.cls-481{fill:#ee4523;}.cls-482{fill:#ee4623;}.cls-483{fill:#ee4723;}.cls-484{fill:#ee4823;}.cls-485{fill:#ee4923;}.cls-486{fill:#ee4a23;}.cls-487{fill:#ee4b23;}.cls-488{fill:#ee4c23;}.cls-489{fill:#ef4d23;}.cls-490{fill:#ef4e23;}.cls-491{fill:#ef4f23;}.cls-492{fill:#ef5023;}.cls-493{fill:#ef5123;}.cls-494{fill:#ef5223;}.cls-495{fill:#ef5323;}.cls-496{fill:#ef5423;}.cls-497{fill:#ef5523;}.cls-498{fill:#ef5623;}.cls-499{fill:#ef5723;}.cls-500{fill:#ef5823;}.cls-501{fill:#ef5923;}.cls-502{fill:#ef5a23;}.cls-503{fill:#f05b23;}.cls-504{fill:#f05c23;}.cls-505{fill:#f05d23;}.cls-506{fill:#f05e23;}.cls-507{fill:#f05f23;}.cls-508{fill:#f06023;}.cls-509{fill:#f06123;}.cls-510{fill:#f06223;}.cls-511{fill:#f06323;}.cls-512{fill:#f06423;}.cls-513{fill:#f06523;}.cls-514{fill:#f06623;}.cls-515{fill:#f06723;}.cls-516{fill:#f16823;}.cls-517{fill:#f16923;}.cls-518{fill:#f16a23;}.cls-519{fill:#f16b23;}.cls-520{fill:#f16c23;}.cls-521{fill:#f16d23;}.cls-522{fill:#f16e23;}.cls-523{fill:#f16f23;}.cls-524{fill:#f17023;}.cls-525{fill:#f17123;}.cls-526{fill:#f17223;}.cls-527{fill:#f17323;}.cls-528{fill:#f17423;}.cls-529{fill:#f17523;}.cls-530{fill:#f27623;}.cls-531{fill:#f27723;}.cls-532{fill:#f27823;}.cls-533{fill:#f27923;}.cls-534{fill:#f27a23;}.cls-535{fill:#f27b23;}.cls-536{fill:#f27c23;}.cls-537{fill:#f27d23;}.cls-538{fill:#f27e23;}.cls-539{fill:#f27f23;}.cls-540{fill:#f28023;}.cls-541{fill:#f28123;}.cls-542{fill:#f28223;}.cls-543{fill:#f28323;}.cls-544{fill:#f38522;}.cls-545{fill:#f38622;}.cls-546{fill:#f38722;}.cls-547{fill:#f38822;}.cls-548{fill:#f38922;}.cls-549{fill:#f38a22;}.cls-550{fill:#f38b22;}.cls-551{fill:#f38c22;}.cls-552{fill:#f38d22;}.cls-553{fill:#f38e22;}.cls-554{fill:#f38f22;}.cls-555{fill:#f39022;}.cls-556{fill:#f39122;}.cls-557{fill:#f39222;}.cls-558{fill:#f49322;}.cls-559{fill:#f49422;}.cls-560{fill:#f49522;}.cls-561{fill:#f49622;}.cls-562{fill:#f49722;}.cls-563{fill:#f49822;}.cls-564{fill:#f49922;}.cls-565{fill:#f49a22;}.cls-566{fill:#f49b22;}.cls-567{fill:#f49c22;}.cls-568{fill:#f49d22;}.cls-569{fill:#f49e22;}.cls-570{fill:#f49f22;}.cls-571{fill:#f4a022;}.cls-572{fill:#f5a122;}.cls-573{fill:#f5a222;}.cls-574{fill:#f5a322;}.cls-575{fill:#f5a422;}.cls-576{fill:#f5a522;}.cls-577{fill:#f5a622;}.cls-578{fill:#f5a722;}.cls-579{fill:#f5a822;}.cls-580{fill:#f5a922;}.cls-581{fill:#f5aa22;}.cls-582{fill:#f5ab22;}.cls-583{fill:#f5ac22;}.cls-584{fill:#f5ad22;}.cls-585{fill:#f6ae22;}.cls-586{fill:#f6af22;}.cls-587{fill:#f6b022;}.cls-588{fill:#f6b122;}.cls-589{fill:#f6b222;}.cls-590{fill:#f6b322;}.cls-591{fill:#f6b422;}.cls-592{fill:#f6b522;}.cls-593{fill:#f6b622;}.cls-594{fill:#f6b722;}.cls-595{fill:#f6b822;}.cls-596{fill:#f6b922;}.cls-597{fill:#f6ba22;}.cls-598{fill:#f6bb22;}.cls-599{fill:#f7bc22;}.cls-600{fill:#f7bd22;}.cls-601{fill:#f7be22;}.cls-602{fill:#f7bf22;}.cls-603{fill:#f7c022;}.cls-604{fill:#f7c122;}.cls-605{fill:#f7c222;}.cls-606{fill:#f7c322;}.cls-607{fill:#f7c422;}.cls-608{fill:#f7c522;}.cls-609{fill:#f7c622;}.cls-610{fill:#f7c722;}.cls-611{fill:#f7c822;}.cls-612{fill:#f7c922;}.cls-613{fill:#f8ca21;}.cls-614{fill:#f8cb21;}.cls-615{fill:#f8cc21;}.cls-616{fill:#f8cd21;}.cls-617{fill:#f8ce21;}.cls-618{fill:#f8cf21;}.cls-619{fill:#f8d021;}.cls-620{fill:#f8d121;}.cls-621{fill:#f8d221;}.cls-622{fill:#f8d321;}.cls-623{fill:#f8d421;}.cls-624{fill:#f8d521;}.cls-625{fill:#f8d621;}.cls-626{fill:#f8d721;}.cls-627{fill:#f9d821;}.cls-628{fill:#f9d921;}.cls-629{fill:#f9da21;}.cls-630{fill:#f9db21;}.cls-631{fill:#f9dc21;}.cls-632{fill:#f9dd21;}.cls-633{fill:#f9de21;}.cls-634{fill:#f9df21;}.cls-635{fill:#f9e021;}.cls-636{fill:#f9e121;}.cls-637{fill:#f9e221;}.cls-638{fill:#f9e321;}.cls-639{fill:#f9e421;}.cls-640{fill:#f9e521;}.cls-641{fill:#fae621;}.cls-642{fill:#fae721;}.cls-643{fill:#fae821;}.cls-644{fill:#fae921;}.cls-645{fill:#faea21;}.cls-646{fill:#faeb21;}.cls-647{fill:#faec21;}.cls-648{opacity:0.83;}.cls-649{fill:#eff;}</style><clipPath id="clip-path"><ellipse class="cls-1" cx="30" cy="30" rx="28.03" ry="27.79" transform="translate(-2.4 2.61) rotate(-4.8)"/></clipPath></defs><title>Artboard 51</title><g id="spil_skærm"><g class="cls-2"><g class="cls-3"><polygon class="cls-4" points="1.89 58.98 0.79 45.9 0.79 43.88 59.21 38.98 59.21 58.98 1.89 58.98"/><polygon class="cls-4" points="0.79 43.82 59.21 38.92 59.21 38.98 0.79 43.88 0.79 43.82"/><polygon class="cls-5" points="0.79 43.76 59.21 38.85 59.21 38.92 0.79 43.82 0.79 43.76"/><polygon class="cls-6" points="0.79 43.69 59.21 38.79 59.21 38.85 0.79 43.76 0.79 43.69"/><polygon class="cls-7" points="0.79 43.63 59.21 38.73 59.21 38.79 0.79 43.69 0.79 43.63"/><polygon class="cls-8" points="0.79 43.57 59.21 38.67 59.21 38.73 0.79 43.63 0.79 43.57"/><polygon class="cls-9" points="0.79 43.5 59.21 38.6 59.21 38.67 0.79 43.57 0.79 43.5"/><polygon class="cls-10" points="0.79 43.44 59.21 38.54 59.21 38.6 0.79 43.5 0.79 43.44"/><polygon class="cls-11" points="0.79 43.38 59.21 38.48 59.21 38.54 0.79 43.44 0.79 43.38"/><polygon class="cls-12" points="0.79 43.31 59.21 38.41 59.21 38.48 0.79 43.38 0.79 43.31"/><polygon class="cls-13" points="0.79 43.25 59.21 38.35 59.21 38.41 0.79 43.31 0.79 43.25"/><polygon class="cls-14" points="0.79 43.19 59.21 38.29 59.21 38.35 0.79 43.25 0.79 43.19"/><polygon class="cls-15" points="0.79 43.13 59.21 38.22 59.21 38.29 0.79 43.19 0.79 43.13"/><polygon class="cls-16" points="0.79 43.06 59.21 38.16 59.21 38.22 0.79 43.13 0.79 43.06"/><polygon class="cls-17" points="0.79 43 59.21 38.1 59.21 38.16 0.79 43.06 0.79 43"/><polygon class="cls-18" points="0.79 42.94 59.21 38.03 59.21 38.1 0.79 43 0.79 42.94"/><polygon class="cls-19" points="0.79 42.87 59.21 37.97 59.21 38.03 0.79 42.94 0.79 42.87"/><polygon class="cls-20" points="0.79 42.81 59.21 37.91 59.21 37.97 0.79 42.87 0.79 42.81"/><polygon class="cls-21" points="0.79 42.75 59.21 37.84 59.21 37.91 0.79 42.81 0.79 42.75"/><polygon class="cls-22" points="0.79 42.68 59.21 37.78 59.21 37.84 0.79 42.75 0.79 42.68"/><polygon class="cls-23" points="0.79 42.62 59.21 37.72 59.21 37.78 0.79 42.68 0.79 42.62"/><polygon class="cls-24" points="0.79 42.56 59.21 37.66 59.21 37.72 0.79 42.62 0.79 42.56"/><polygon class="cls-25" points="0.79 42.49 59.21 37.59 59.21 37.66 0.79 42.56 0.79 42.49"/><polygon class="cls-26" points="0.79 42.43 59.21 37.53 59.21 37.59 0.79 42.49 0.79 42.43"/><polygon class="cls-27" points="0.79 42.37 59.21 37.47 59.21 37.53 0.79 42.43 0.79 42.37"/><polygon class="cls-28" points="0.79 42.3 59.21 37.4 59.21 37.47 0.79 42.37 0.79 42.3"/><polygon class="cls-29" points="0.79 42.24 59.21 37.34 59.21 37.4 0.79 42.3 0.79 42.24"/><polygon class="cls-30" points="0.79 42.18 59.21 37.28 59.21 37.34 0.79 42.24 0.79 42.18"/><polygon class="cls-31" points="0.79 42.12 59.21 37.21 59.21 37.28 0.79 42.18 0.79 42.12"/><polygon class="cls-32" points="0.79 42.05 59.21 37.15 59.21 37.21 0.79 42.12 0.79 42.05"/><polygon class="cls-33" points="0.79 41.99 59.21 37.09 59.21 37.15 0.79 42.05 0.79 41.99"/><polygon class="cls-34" points="0.79 41.93 59.21 37.02 59.21 37.09 0.79 41.99 0.79 41.93"/><polygon class="cls-35" points="0.79 41.86 59.21 36.96 59.21 37.02 0.79 41.93 0.79 41.86"/><polygon class="cls-36" points="0.79 41.8 59.21 36.9 59.21 36.96 0.79 41.86 0.79 41.8"/><polygon class="cls-37" points="0.79 41.74 59.21 36.84 59.21 36.9 0.79 41.8 0.79 41.74"/><polygon class="cls-38" points="0.79 41.67 59.21 36.77 59.21 36.84 0.79 41.74 0.79 41.67"/><polygon class="cls-39" points="0.79 41.61 59.21 36.71 59.21 36.77 0.79 41.67 0.79 41.61"/><polygon class="cls-40" points="0.79 41.55 59.21 36.65 59.21 36.71 0.79 41.61 0.79 41.55"/><polygon class="cls-41" points="0.79 41.48 59.21 36.58 59.21 36.65 0.79 41.55 0.79 41.48"/><polygon class="cls-42" points="0.79 41.42 59.21 36.52 59.21 36.58 0.79 41.48 0.79 41.42"/><polygon class="cls-43" points="0.79 41.36 59.21 36.46 59.21 36.52 0.79 41.42 0.79 41.36"/><polygon class="cls-44" points="0.79 41.29 59.21 36.39 59.21 36.46 0.79 41.36 0.79 41.29"/><polygon class="cls-45" points="0.79 41.23 59.21 36.33 59.21 36.39 0.79 41.29 0.79 41.23"/><polygon class="cls-46" points="0.79 41.17 59.21 36.27 59.21 36.33 0.79 41.23 0.79 41.17"/><polygon class="cls-47" points="0.79 41.1 59.21 36.2 59.21 36.27 0.79 41.17 0.79 41.1"/><polygon class="cls-48" points="0.79 41.04 59.21 36.14 59.21 36.2 0.79 41.1 0.79 41.04"/><polygon class="cls-49" points="0.79 40.98 59.21 36.08 59.21 36.14 0.79 41.04 0.79 40.98"/><polygon class="cls-50" points="0.79 40.91 59.21 36.01 59.21 36.08 0.79 40.98 0.79 40.91"/><polygon class="cls-51" points="0.79 40.85 59.21 35.95 59.21 36.01 0.79 40.91 0.79 40.85"/><polygon class="cls-52" points="0.79 40.79 59.21 35.89 59.21 35.95 0.79 40.85 0.79 40.79"/><polygon class="cls-53" points="0.79 40.73 59.21 35.82 59.21 35.89 0.79 40.79 0.79 40.73"/><polygon class="cls-54" points="0.79 40.66 59.21 35.76 59.21 35.82 0.79 40.73 0.79 40.66"/><polygon class="cls-55" points="0.79 40.6 59.21 35.7 59.21 35.76 0.79 40.66 0.79 40.6"/><polygon class="cls-56" points="0.79 40.54 59.21 35.63 59.21 35.7 0.79 40.6 0.79 40.54"/><polygon class="cls-57" points="0.79 40.47 59.21 35.57 59.21 35.63 0.79 40.54 0.79 40.47"/><polygon class="cls-58" points="0.79 40.41 59.21 35.51 59.21 35.57 0.79 40.47 0.79 40.41"/><polygon class="cls-59" points="0.79 40.35 59.21 35.45 59.21 35.51 0.79 40.41 0.79 40.35"/><polygon class="cls-60" points="0.79 40.28 59.21 35.38 59.21 35.45 0.79 40.35 0.79 40.28"/><polygon class="cls-61" points="0.79 40.22 59.21 35.32 59.21 35.38 0.79 40.28 0.79 40.22"/><polygon class="cls-62" points="0.79 40.16 59.21 35.26 59.21 35.32 0.79 40.22 0.79 40.16"/><polygon class="cls-63" points="0.79 40.09 59.21 35.19 59.21 35.26 0.79 40.16 0.79 40.09"/><polygon class="cls-64" points="0.79 40.03 59.21 35.13 59.21 35.19 0.79 40.09 0.79 40.03"/><polygon class="cls-65" points="0.79 39.97 59.21 35.07 59.21 35.13 0.79 40.03 0.79 39.97"/><polygon class="cls-66" points="0.79 39.91 59.21 35 59.21 35.07 0.79 39.97 0.79 39.91"/><polygon class="cls-67" points="0.79 39.84 59.21 34.94 59.21 35 0.79 39.91 0.79 39.84"/><polygon class="cls-68" points="0.79 39.78 59.21 34.88 59.21 34.94 0.79 39.84 0.79 39.78"/><polygon class="cls-69" points="0.79 39.72 59.21 34.81 59.21 34.88 0.79 39.78 0.79 39.72"/><polygon class="cls-70" points="0.79 39.65 59.21 34.75 59.21 34.81 0.79 39.72 0.79 39.65"/><polygon class="cls-71" points="0.79 39.59 59.21 34.69 59.21 34.75 0.79 39.65 0.79 39.59"/><polygon class="cls-72" points="0.79 39.53 59.21 34.63 59.21 34.69 0.79 39.59 0.79 39.53"/><polygon class="cls-73" points="0.79 39.46 59.21 34.56 59.21 34.63 0.79 39.53 0.79 39.46"/><polygon class="cls-74" points="0.79 39.4 59.21 34.5 59.21 34.56 0.79 39.46 0.79 39.4"/><polygon class="cls-75" points="0.79 39.34 59.21 34.44 59.21 34.5 0.79 39.4 0.79 39.34"/><polygon class="cls-76" points="0.79 39.27 59.21 34.37 59.21 34.44 0.79 39.34 0.79 39.27"/><polygon class="cls-77" points="0.79 39.21 59.21 34.31 59.21 34.37 0.79 39.27 0.79 39.21"/><polygon class="cls-78" points="0.79 39.15 59.21 34.25 59.21 34.31 0.79 39.21 0.79 39.15"/><polygon class="cls-79" points="0.79 39.08 59.21 34.18 59.21 34.25 0.79 39.15 0.79 39.08"/><polygon class="cls-80" points="0.79 39.02 59.21 34.12 59.21 34.18 0.79 39.08 0.79 39.02"/><polygon class="cls-81" points="0.79 38.96 59.21 34.06 59.21 34.12 0.79 39.02 0.79 38.96"/><polygon class="cls-82" points="0.79 38.9 59.21 33.99 59.21 34.06 0.79 38.96 0.79 38.9"/><polygon class="cls-83" points="0.79 38.83 59.21 33.93 59.21 33.99 0.79 38.9 0.79 38.83"/><polygon class="cls-84" points="0.79 38.77 59.21 33.87 59.21 33.93 0.79 38.83 0.79 38.77"/><polygon class="cls-85" points="0.79 38.7 59.21 33.8 59.21 33.87 0.79 38.77 0.79 38.7"/><polygon class="cls-86" points="0.79 38.64 59.21 33.74 59.21 33.8 0.79 38.7 0.79 38.64"/><polygon class="cls-87" points="0.79 38.58 59.21 33.68 59.21 33.74 0.79 38.64 0.79 38.58"/><polygon class="cls-88" points="0.79 38.52 59.21 33.62 59.21 33.68 0.79 38.58 0.79 38.52"/><polygon class="cls-89" points="0.79 38.45 59.21 33.55 59.21 33.62 0.79 38.52 0.79 38.45"/><polygon class="cls-90" points="0.79 38.39 59.21 33.49 59.21 33.55 0.79 38.45 0.79 38.39"/><polygon class="cls-91" points="0.79 38.33 59.21 33.42 59.21 33.49 0.79 38.39 0.79 38.33"/><polygon class="cls-92" points="0.79 38.26 59.21 33.36 59.21 33.42 0.79 38.33 0.79 38.26"/><polygon class="cls-93" points="0.79 38.2 59.21 33.3 59.21 33.36 0.79 38.26 0.79 38.2"/><polygon class="cls-94" points="0.79 38.14 59.21 33.24 59.21 33.3 0.79 38.2 0.79 38.14"/><polygon class="cls-95" points="0.79 38.07 59.21 33.17 59.21 33.24 0.79 38.14 0.79 38.07"/><polygon class="cls-96" points="0.79 38.01 59.21 33.11 59.21 33.17 0.79 38.07 0.79 38.01"/><polygon class="cls-97" points="0.79 37.95 59.21 33.05 59.21 33.11 0.79 38.01 0.79 37.95"/><polygon class="cls-98" points="0.79 37.88 59.21 32.98 59.21 33.05 0.79 37.95 0.79 37.88"/><polygon class="cls-99" points="0.79 37.82 59.21 32.92 59.21 32.98 0.79 37.88 0.79 37.82"/><polygon class="cls-100" points="0.79 37.76 59.21 32.86 59.21 32.92 0.79 37.82 0.79 37.76"/><polygon class="cls-101" points="0.79 37.7 59.21 32.79 59.21 32.86 0.79 37.76 0.79 37.7"/><polygon class="cls-102" points="0.79 37.63 59.21 32.73 59.21 32.79 0.79 37.7 0.79 37.63"/><polygon class="cls-103" points="0.79 37.57 59.21 32.67 59.21 32.73 0.79 37.63 0.79 37.57"/><polygon class="cls-104" points="0.79 37.51 59.21 32.6 59.21 32.67 0.79 37.57 0.79 37.51"/><polygon class="cls-105" points="0.79 37.44 59.21 32.54 59.21 32.6 0.79 37.51 0.79 37.44"/><polygon class="cls-106" points="0.79 37.38 59.21 32.48 59.21 32.54 0.79 37.44 0.79 37.38"/><polygon class="cls-107" points="0.79 37.32 59.21 32.41 59.21 32.48 0.79 37.38 0.79 37.32"/><polygon class="cls-108" points="0.79 37.25 59.21 32.35 59.21 32.41 0.79 37.32 0.79 37.25"/><polygon class="cls-109" points="0.79 37.19 59.21 32.29 59.21 32.35 0.79 37.25 0.79 37.19"/><polygon class="cls-110" points="0.79 37.13 59.21 32.23 59.21 32.29 0.79 37.19 0.79 37.13"/><polygon class="cls-111" points="0.79 37.06 59.21 32.16 59.21 32.23 0.79 37.13 0.79 37.06"/><polygon class="cls-112" points="0.79 37 59.21 32.1 59.21 32.16 0.79 37.06 0.79 37"/><polygon class="cls-113" points="0.79 36.94 59.21 32.04 59.21 32.1 0.79 37 0.79 36.94"/><polygon class="cls-114" points="0.79 36.87 59.21 31.97 59.21 32.04 0.79 36.94 0.79 36.87"/><polygon class="cls-115" points="0.79 36.81 59.21 31.91 59.21 31.97 0.79 36.87 0.79 36.81"/><polygon class="cls-116" points="0.79 36.75 59.21 31.85 59.21 31.91 0.79 36.81 0.79 36.75"/><polygon class="cls-117" points="0.79 36.69 59.21 31.78 59.21 31.85 0.79 36.75 0.79 36.69"/><polygon class="cls-118" points="0.79 36.62 59.21 31.72 59.21 31.78 0.79 36.69 0.79 36.62"/><polygon class="cls-119" points="0.79 36.56 59.21 31.66 59.21 31.72 0.79 36.62 0.79 36.56"/><polygon class="cls-120" points="0.79 36.5 59.21 31.59 59.21 31.66 0.79 36.56 0.79 36.5"/><polygon class="cls-121" points="0.79 36.43 59.21 31.53 59.21 31.59 0.79 36.5 0.79 36.43"/><polygon class="cls-122" points="0.79 36.37 59.21 31.47 59.21 31.53 0.79 36.43 0.79 36.37"/><polygon class="cls-123" points="0.79 36.31 59.21 31.41 59.21 31.47 0.79 36.37 0.79 36.31"/><polygon class="cls-124" points="0.79 36.24 59.21 31.34 59.21 31.41 0.79 36.31 0.79 36.24"/><polygon class="cls-125" points="0.79 36.18 59.21 31.28 59.21 31.34 0.79 36.24 0.79 36.18"/><polygon class="cls-126" points="0.79 36.12 59.21 31.21 59.21 31.28 0.79 36.18 0.79 36.12"/><polygon class="cls-127" points="0.79 36.05 59.21 31.15 59.21 31.21 0.79 36.12 0.79 36.05"/><polygon class="cls-128" points="0.79 35.99 59.21 31.09 59.21 31.15 0.79 36.05 0.79 35.99"/><polygon class="cls-129" points="0.79 35.93 59.21 31.03 59.21 31.09 0.79 35.99 0.79 35.93"/><polygon class="cls-130" points="0.79 35.86 59.21 30.96 59.21 31.03 0.79 35.93 0.79 35.86"/><polygon class="cls-131" points="0.79 35.8 59.21 30.9 59.21 30.96 0.79 35.86 0.79 35.8"/><polygon class="cls-132" points="0.79 35.74 59.21 30.84 59.21 30.9 0.79 35.8 0.79 35.74"/><polygon class="cls-133" points="0.79 35.67 59.21 30.77 59.21 30.84 0.79 35.74 0.79 35.67"/><polygon class="cls-134" points="0.79 35.61 59.21 30.71 59.21 30.77 0.79 35.67 0.79 35.61"/><polygon class="cls-135" points="0.79 35.55 59.21 30.65 59.21 30.71 0.79 35.61 0.79 35.55"/><polygon class="cls-136" points="0.79 35.48 59.21 30.58 59.21 30.65 0.79 35.55 0.79 35.48"/><polygon class="cls-137" points="0.79 35.42 59.21 30.52 59.21 30.58 0.79 35.48 0.79 35.42"/><polygon class="cls-138" points="0.79 35.36 59.21 30.46 59.21 30.52 0.79 35.42 0.79 35.36"/><polygon class="cls-139" points="0.79 35.3 59.21 30.39 59.21 30.46 0.79 35.36 0.79 35.3"/><polygon class="cls-140" points="0.79 35.23 59.21 30.33 59.21 30.39 0.79 35.3 0.79 35.23"/><polygon class="cls-141" points="0.79 35.17 59.21 30.27 59.21 30.33 0.79 35.23 0.79 35.17"/><polygon class="cls-142" points="0.79 35.11 59.21 30.2 59.21 30.27 0.79 35.17 0.79 35.11"/><polygon class="cls-143" points="0.79 35.04 59.21 30.14 59.21 30.2 0.79 35.11 0.79 35.04"/><polygon class="cls-144" points="0.79 34.98 59.21 30.08 59.21 30.14 0.79 35.04 0.79 34.98"/><polygon class="cls-145" points="0.79 34.92 59.21 30.02 59.21 30.08 0.79 34.98 0.79 34.92"/><polygon class="cls-146" points="0.79 34.85 59.21 29.95 59.21 30.02 0.79 34.92 0.79 34.85"/><polygon class="cls-147" points="0.79 34.79 59.21 29.89 59.21 29.95 0.79 34.85 0.79 34.79"/><polygon class="cls-148" points="0.79 34.73 59.21 29.83 59.21 29.89 0.79 34.79 0.79 34.73"/><polygon class="cls-149" points="0.79 34.66 59.21 29.76 59.21 29.83 0.79 34.73 0.79 34.66"/><polygon class="cls-150" points="0.79 34.6 59.21 29.7 59.21 29.76 0.79 34.66 0.79 34.6"/><polygon class="cls-151" points="0.79 34.54 59.21 29.64 59.21 29.7 0.79 34.6 0.79 34.54"/><polygon class="cls-152" points="0.79 34.48 59.21 29.57 59.21 29.64 0.79 34.54 0.79 34.48"/><polygon class="cls-153" points="0.79 34.41 59.21 29.51 59.21 29.57 0.79 34.48 0.79 34.41"/><polygon class="cls-154" points="0.79 34.35 59.21 29.45 59.21 29.51 0.79 34.41 0.79 34.35"/><polygon class="cls-155" points="0.79 34.29 59.21 29.38 59.21 29.45 0.79 34.35 0.79 34.29"/><polygon class="cls-156" points="0.79 34.22 59.21 29.32 59.21 29.38 0.79 34.29 0.79 34.22"/><polygon class="cls-157" points="0.79 34.16 59.21 29.26 59.21 29.32 0.79 34.22 0.79 34.16"/><polygon class="cls-158" points="0.79 34.1 59.21 29.2 59.21 29.26 0.79 34.16 0.79 34.1"/><polygon class="cls-159" points="0.79 34.03 59.21 29.13 59.21 29.2 0.79 34.1 0.79 34.03"/><polygon class="cls-160" points="0.79 33.97 59.21 29.07 59.21 29.13 0.79 34.03 0.79 33.97"/><polygon class="cls-161" points="0.79 33.91 59.21 29 59.21 29.07 0.79 33.97 0.79 33.91"/><polygon class="cls-162" points="0.79 33.84 59.21 28.94 59.21 29 0.79 33.91 0.79 33.84"/><polygon class="cls-163" points="0.79 33.78 59.21 28.88 59.21 28.94 0.79 33.84 0.79 33.78"/><polygon class="cls-164" points="0.79 33.72 59.21 28.82 59.21 28.88 0.79 33.78 0.79 33.72"/><polygon class="cls-165" points="0.79 33.65 59.21 28.75 59.21 28.82 0.79 33.72 0.79 33.65"/><polygon class="cls-166" points="0.79 33.59 59.21 28.69 59.21 28.75 0.79 33.65 0.79 33.59"/><polygon class="cls-167" points="0.79 33.53 59.21 28.63 59.21 28.69 0.79 33.59 0.79 33.53"/><polygon class="cls-168" points="0.79 33.47 59.21 28.56 59.21 28.63 0.79 33.53 0.79 33.47"/><polygon class="cls-169" points="0.79 33.4 59.21 28.5 59.21 28.56 0.79 33.47 0.79 33.4"/><polygon class="cls-170" points="0.79 33.34 59.21 28.44 59.21 28.5 0.79 33.4 0.79 33.34"/><polygon class="cls-171" points="0.79 33.27 59.21 28.37 59.21 28.44 0.79 33.34 0.79 33.27"/><polygon class="cls-172" points="0.79 33.21 59.21 28.31 59.21 28.37 0.79 33.27 0.79 33.21"/><polygon class="cls-173" points="0.79 33.15 59.21 28.25 59.21 28.31 0.79 33.21 0.79 33.15"/><polygon class="cls-174" points="0.79 33.09 59.21 28.18 59.21 28.25 0.79 33.15 0.79 33.09"/><polygon class="cls-175" points="0.79 33.02 59.21 28.12 59.21 28.18 0.79 33.09 0.79 33.02"/><polygon class="cls-176" points="0.79 32.96 59.21 28.06 59.21 28.12 0.79 33.02 0.79 32.96"/><polygon class="cls-177" points="0.79 32.9 59.21 28 59.21 28.06 0.79 32.96 0.79 32.9"/><polygon class="cls-178" points="0.79 32.83 59.21 27.93 59.21 28 0.79 32.9 0.79 32.83"/><polygon class="cls-179" points="0.79 32.77 59.21 27.87 59.21 27.93 0.79 32.83 0.79 32.77"/><polygon class="cls-180" points="0.79 32.71 59.21 27.81 59.21 27.87 0.79 32.77 0.79 32.71"/><polygon class="cls-181" points="0.79 32.64 59.21 27.74 59.21 27.81 0.79 32.71 0.79 32.64"/><polygon class="cls-182" points="0.79 32.58 59.21 27.68 59.21 27.74 0.79 32.64 0.79 32.58"/><polygon class="cls-183" points="0.79 32.52 59.21 27.62 59.21 27.68 0.79 32.58 0.79 32.52"/><polygon class="cls-184" points="0.79 32.45 59.21 27.55 59.21 27.62 0.79 32.52 0.79 32.45"/><polygon class="cls-185" points="0.79 32.39 59.21 27.49 59.21 27.55 0.79 32.45 0.79 32.39"/><polygon class="cls-186" points="0.79 32.33 59.21 27.43 59.21 27.49 0.79 32.39 0.79 32.33"/><polygon class="cls-187" points="0.79 32.27 59.21 27.36 59.21 27.43 0.79 32.33 0.79 32.27"/><polygon class="cls-188" points="0.79 32.2 59.21 27.3 59.21 27.36 0.79 32.27 0.79 32.2"/><polygon class="cls-189" points="0.79 32.14 59.21 27.24 59.21 27.3 0.79 32.2 0.79 32.14"/><polygon class="cls-190" points="0.79 32.08 59.21 27.17 59.21 27.24 0.79 32.14 0.79 32.08"/><polygon class="cls-191" points="0.79 32.01 59.21 27.11 59.21 27.17 0.79 32.08 0.79 32.01"/><polygon class="cls-192" points="0.79 31.95 59.21 27.05 59.21 27.11 0.79 32.01 0.79 31.95"/><polygon class="cls-193" points="0.79 31.89 59.21 26.98 59.21 27.05 0.79 31.95 0.79 31.89"/><polygon class="cls-194" points="0.79 31.82 59.21 26.92 59.21 26.98 0.79 31.89 0.79 31.82"/><polygon class="cls-195" points="0.79 31.76 59.21 26.86 59.21 26.92 0.79 31.82 0.79 31.76"/><polygon class="cls-196" points="0.79 31.7 59.21 26.8 59.21 26.86 0.79 31.76 0.79 31.7"/><polygon class="cls-197" points="0.79 31.63 59.21 26.73 59.21 26.8 0.79 31.7 0.79 31.63"/><polygon class="cls-198" points="0.79 31.57 59.21 26.67 59.21 26.73 0.79 31.63 0.79 31.57"/><polygon class="cls-199" points="0.79 31.51 59.21 26.61 59.21 26.67 0.79 31.57 0.79 31.51"/><polygon class="cls-200" points="0.79 31.44 59.21 26.54 59.21 26.61 0.79 31.51 0.79 31.44"/><polygon class="cls-201" points="0.79 31.38 59.21 26.48 59.21 26.54 0.79 31.44 0.79 31.38"/><polygon class="cls-202" points="0.79 31.32 59.21 26.42 59.21 26.48 0.79 31.38 0.79 31.32"/><polygon class="cls-203" points="0.79 31.25 59.21 26.35 59.21 26.42 0.79 31.32 0.79 31.25"/><polygon class="cls-204" points="0.79 31.19 59.21 26.29 59.21 26.35 0.79 31.25 0.79 31.19"/><polygon class="cls-205" points="0.79 31.13 59.21 26.23 59.21 26.29 0.79 31.19 0.79 31.13"/><polygon class="cls-206" points="0.79 31.07 59.21 26.16 59.21 26.23 0.79 31.13 0.79 31.07"/><polygon class="cls-207" points="0.79 31 59.21 26.1 59.21 26.16 0.79 31.07 0.79 31"/><polygon class="cls-207" points="0.79 30.97 59.21 26.07 59.21 26.1 0.79 31 0.79 30.97"/><polygon class="cls-206" points="0.79 30.93 59.21 26.03 59.21 26.07 0.79 30.97 0.79 30.93"/><polygon class="cls-208" points="0.79 30.9 59.21 26 59.21 26.03 0.79 30.93 0.79 30.9"/><polygon class="cls-209" points="0.79 30.87 59.21 25.96 59.21 26 0.79 30.9 0.79 30.87"/><polygon class="cls-210" points="0.79 30.83 59.21 25.93 59.21 25.96 0.79 30.87 0.79 30.83"/><polygon class="cls-211" points="0.79 30.8 59.21 25.9 59.21 25.93 0.79 30.83 0.79 30.8"/><polygon class="cls-212" points="0.79 30.76 59.21 25.86 59.21 25.9 0.79 30.8 0.79 30.76"/><polygon class="cls-213" points="0.79 30.73 59.21 25.83 59.21 25.86 0.79 30.76 0.79 30.73"/><polygon class="cls-214" points="0.79 30.69 59.21 25.79 59.21 25.83 0.79 30.73 0.79 30.69"/><polygon class="cls-215" points="0.79 30.66 59.21 25.76 59.21 25.79 0.79 30.69 0.79 30.66"/><polygon class="cls-216" points="0.79 30.63 59.21 25.72 59.21 25.76 0.79 30.66 0.79 30.63"/><polygon class="cls-217" points="0.79 30.59 59.21 25.69 59.21 25.72 0.79 30.63 0.79 30.59"/><polygon class="cls-218" points="0.79 30.56 59.21 25.66 59.21 25.69 0.79 30.59 0.79 30.56"/><polygon class="cls-219" points="0.79 30.52 59.21 25.62 59.21 25.66 0.79 30.56 0.79 30.52"/><polygon class="cls-220" points="0.79 30.49 59.21 25.59 59.21 25.62 0.79 30.52 0.79 30.49"/><polygon class="cls-221" points="0.79 30.45 59.21 25.55 59.21 25.59 0.79 30.49 0.79 30.45"/><polygon class="cls-222" points="0.79 30.42 59.21 25.52 59.21 25.55 0.79 30.45 0.79 30.42"/><polygon class="cls-223" points="0.79 30.39 59.21 25.48 59.21 25.52 0.79 30.42 0.79 30.39"/><polygon class="cls-224" points="0.79 30.35 59.21 25.45 59.21 25.48 0.79 30.39 0.79 30.35"/><polygon class="cls-225" points="0.79 30.32 59.21 25.42 59.21 25.45 0.79 30.35 0.79 30.32"/><polygon class="cls-226" points="0.79 30.28 59.21 25.38 59.21 25.42 0.79 30.32 0.79 30.28"/><polygon class="cls-227" points="0.79 30.25 59.21 25.35 59.21 25.38 0.79 30.28 0.79 30.25"/><polygon class="cls-228" points="0.79 30.21 59.21 25.31 59.21 25.35 0.79 30.25 0.79 30.21"/><polygon class="cls-229" points="0.79 30.18 59.21 25.28 59.21 25.31 0.79 30.21 0.79 30.18"/><polygon class="cls-230" points="0.79 30.15 59.21 25.25 59.21 25.28 0.79 30.18 0.79 30.15"/><polygon class="cls-231" points="0.79 30.11 59.21 25.21 59.21 25.25 0.79 30.15 0.79 30.11"/><polygon class="cls-232" points="0.79 30.08 59.21 25.18 59.21 25.21 0.79 30.11 0.79 30.08"/><polygon class="cls-233" points="0.79 30.04 59.21 25.14 59.21 25.18 0.79 30.08 0.79 30.04"/><polygon class="cls-234" points="0.79 30.01 59.21 25.11 59.21 25.14 0.79 30.04 0.79 30.01"/><polygon class="cls-235" points="0.79 29.98 59.21 25.07 59.21 25.11 0.79 30.01 0.79 29.98"/><polygon class="cls-236" points="0.79 29.94 59.21 25.04 59.21 25.07 0.79 29.98 0.79 29.94"/><polygon class="cls-237" points="0.79 29.91 59.21 25.01 59.21 25.04 0.79 29.94 0.79 29.91"/><polygon class="cls-238" points="0.79 29.87 59.21 24.97 59.21 25.01 0.79 29.91 0.79 29.87"/><polygon class="cls-239" points="0.79 29.84 59.21 24.94 59.21 24.97 0.79 29.87 0.79 29.84"/><polygon class="cls-240" points="0.79 29.8 59.21 24.9 59.21 24.94 0.79 29.84 0.79 29.8"/><polygon class="cls-241" points="0.79 29.77 59.21 24.87 59.21 24.9 0.79 29.8 0.79 29.77"/><polygon class="cls-242" points="0.79 29.74 59.21 24.83 59.21 24.87 0.79 29.77 0.79 29.74"/><polygon class="cls-243" points="0.79 29.7 59.21 24.8 59.21 24.83 0.79 29.74 0.79 29.7"/><polygon class="cls-244" points="0.79 29.67 59.21 24.77 59.21 24.8 0.79 29.7 0.79 29.67"/><polygon class="cls-245" points="0.79 29.63 59.21 24.73 59.21 24.77 0.79 29.67 0.79 29.63"/><polygon class="cls-246" points="0.79 29.6 59.21 24.7 59.21 24.73 0.79 29.63 0.79 29.6"/><polygon class="cls-247" points="0.79 29.57 59.21 24.66 59.21 24.7 0.79 29.6 0.79 29.57"/><polygon class="cls-248" points="0.79 29.53 59.21 24.63 59.21 24.66 0.79 29.57 0.79 29.53"/><polygon class="cls-249" points="0.79 29.5 59.21 24.59 59.21 24.63 0.79 29.53 0.79 29.5"/><polygon class="cls-250" points="0.79 29.46 59.21 24.56 59.21 24.59 0.79 29.5 0.79 29.46"/><polygon class="cls-251" points="0.79 29.43 59.21 24.53 59.21 24.56 0.79 29.46 0.79 29.43"/><polygon class="cls-252" points="0.79 29.39 59.21 24.49 59.21 24.53 0.79 29.43 0.79 29.39"/><polygon class="cls-253" points="0.79 29.36 59.21 24.46 59.21 24.49 0.79 29.39 0.79 29.36"/><polygon class="cls-254" points="0.79 29.32 59.21 24.42 59.21 24.46 0.79 29.36 0.79 29.32"/><polygon class="cls-255" points="0.79 29.29 59.21 24.39 59.21 24.42 0.79 29.32 0.79 29.29"/><polygon class="cls-256" points="0.79 29.26 59.21 24.36 59.21 24.39 0.79 29.29 0.79 29.26"/><polygon class="cls-257" points="0.79 29.22 59.21 24.32 59.21 24.36 0.79 29.26 0.79 29.22"/><polygon class="cls-258" points="0.79 29.19 59.21 24.29 59.21 24.32 0.79 29.22 0.79 29.19"/><polygon class="cls-259" points="0.79 29.15 59.21 24.25 59.21 24.29 0.79 29.19 0.79 29.15"/><polygon class="cls-260" points="0.79 29.12 59.21 24.22 59.21 24.25 0.79 29.15 0.79 29.12"/><polygon class="cls-261" points="0.79 29.09 59.21 24.18 59.21 24.22 0.79 29.12 0.79 29.09"/><polygon class="cls-262" points="0.79 29.05 59.21 24.15 59.21 24.18 0.79 29.09 0.79 29.05"/><polygon class="cls-263" points="0.79 29.02 59.21 24.12 59.21 24.15 0.79 29.05 0.79 29.02"/><polygon class="cls-264" points="0.79 28.98 59.21 24.08 59.21 24.12 0.79 29.02 0.79 28.98"/><polygon class="cls-265" points="0.79 28.95 59.21 24.05 59.21 24.08 0.79 28.98 0.79 28.95"/><polygon class="cls-266" points="0.79 28.91 59.21 24.01 59.21 24.05 0.79 28.95 0.79 28.91"/><polygon class="cls-267" points="0.79 28.88 59.21 23.98 59.21 24.01 0.79 28.91 0.79 28.88"/><polygon class="cls-268" points="0.79 28.85 59.21 23.95 59.21 23.98 0.79 28.88 0.79 28.85"/><polygon class="cls-269" points="0.79 28.81 59.21 23.91 59.21 23.95 0.79 28.85 0.79 28.81"/><polygon class="cls-270" points="0.79 28.78 59.21 23.88 59.21 23.91 0.79 28.81 0.79 28.78"/><polygon class="cls-271" points="0.79 28.74 59.21 23.84 59.21 23.88 0.79 28.78 0.79 28.74"/><polygon class="cls-272" points="0.79 28.71 59.21 23.81 59.21 23.84 0.79 28.74 0.79 28.71"/><polygon class="cls-273" points="0.79 28.68 59.21 23.77 59.21 23.81 0.79 28.71 0.79 28.68"/><polygon class="cls-274" points="0.79 28.64 59.21 23.74 59.21 23.77 0.79 28.68 0.79 28.64"/><polygon class="cls-275" points="0.79 28.61 59.21 23.7 59.21 23.74 0.79 28.64 0.79 28.61"/><polygon class="cls-276" points="0.79 28.57 59.21 23.67 59.21 23.7 0.79 28.61 0.79 28.57"/><polygon class="cls-277" points="0.79 28.54 59.21 23.64 59.21 23.67 0.79 28.57 0.79 28.54"/><polygon class="cls-278" points="0.79 28.5 59.21 23.6 59.21 23.64 0.79 28.54 0.79 28.5"/><polygon class="cls-279" points="0.79 28.47 59.21 23.57 59.21 23.6 0.79 28.5 0.79 28.47"/><polygon class="cls-280" points="0.79 28.43 59.21 23.53 59.21 23.57 0.79 28.47 0.79 28.43"/><polygon class="cls-281" points="0.79 28.4 59.21 23.5 59.21 23.53 0.79 28.43 0.79 28.4"/><polygon class="cls-282" points="0.79 28.37 59.21 23.46 59.21 23.5 0.79 28.4 0.79 28.37"/><polygon class="cls-283" points="0.79 28.33 59.21 23.43 59.21 23.46 0.79 28.37 0.79 28.33"/><polygon class="cls-284" points="0.79 28.3 59.21 23.4 59.21 23.43 0.79 28.33 0.79 28.3"/><polygon class="cls-285" points="0.79 28.26 59.21 23.36 59.21 23.4 0.79 28.3 0.79 28.26"/><polygon class="cls-286" points="0.79 28.23 59.21 23.33 59.21 23.36 0.79 28.26 0.79 28.23"/><polygon class="cls-287" points="0.79 28.2 59.21 23.29 59.21 23.33 0.79 28.23 0.79 28.2"/><polygon class="cls-288" points="0.79 28.16 59.21 23.26 59.21 23.29 0.79 28.2 0.79 28.16"/><polygon class="cls-289" points="0.79 28.13 59.21 23.23 59.21 23.26 0.79 28.16 0.79 28.13"/><polygon class="cls-290" points="0.79 28.09 59.21 23.19 59.21 23.23 0.79 28.13 0.79 28.09"/><polygon class="cls-291" points="0.79 28.06 59.21 23.16 59.21 23.19 0.79 28.09 0.79 28.06"/><polygon class="cls-292" points="0.79 28.02 59.21 23.12 59.21 23.16 0.79 28.06 0.79 28.02"/><polygon class="cls-293" points="0.79 27.99 59.21 23.09 59.21 23.12 0.79 28.02 0.79 27.99"/><polygon class="cls-294" points="0.79 27.96 59.21 23.05 59.21 23.09 0.79 27.99 0.79 27.96"/><polygon class="cls-295" points="0.79 27.92 59.21 23.02 59.21 23.05 0.79 27.96 0.79 27.92"/><polygon class="cls-296" points="0.79 27.89 59.21 22.99 59.21 23.02 0.79 27.92 0.79 27.89"/><polygon class="cls-297" points="0.79 27.85 59.21 22.95 59.21 22.99 0.79 27.89 0.79 27.85"/><polygon class="cls-298" points="0.79 27.82 59.21 22.92 59.21 22.95 0.79 27.85 0.79 27.82"/><polygon class="cls-299" points="0.79 27.79 59.21 22.88 59.21 22.92 0.79 27.82 0.79 27.79"/><polygon class="cls-300" points="0.79 27.75 59.21 22.85 59.21 22.88 0.79 27.79 0.79 27.75"/><polygon class="cls-301" points="0.79 27.72 59.21 22.82 59.21 22.85 0.79 27.75 0.79 27.72"/><polygon class="cls-302" points="0.79 27.68 59.21 22.78 59.21 22.82 0.79 27.72 0.79 27.68"/><polygon class="cls-303" points="0.79 27.65 59.21 22.75 59.21 22.78 0.79 27.68 0.79 27.65"/><polygon class="cls-304" points="0.79 27.61 59.21 22.71 59.21 22.75 0.79 27.65 0.79 27.61"/><polygon class="cls-305" points="0.79 27.58 59.21 22.68 59.21 22.71 0.79 27.61 0.79 27.58"/><polygon class="cls-306" points="0.79 27.55 59.21 22.64 59.21 22.68 0.79 27.58 0.79 27.55"/><polygon class="cls-307" points="0.79 27.51 59.21 22.61 59.21 22.64 0.79 27.55 0.79 27.51"/><polygon class="cls-308" points="0.79 27.48 59.21 22.57 59.21 22.61 0.79 27.51 0.79 27.48"/><polygon class="cls-309" points="0.79 27.44 59.21 22.54 59.21 22.57 0.79 27.48 0.79 27.44"/><polygon class="cls-310" points="0.79 27.41 59.21 22.51 59.21 22.54 0.79 27.44 0.79 27.41"/><polygon class="cls-311" points="0.79 27.37 59.21 22.47 59.21 22.51 0.79 27.41 0.79 27.37"/><polygon class="cls-312" points="0.79 27.34 59.21 22.44 59.21 22.47 0.79 27.37 0.79 27.34"/><polygon class="cls-313" points="0.79 27.31 59.21 22.4 59.21 22.44 0.79 27.34 0.79 27.31"/><polygon class="cls-314" points="0.79 27.27 59.21 22.37 59.21 22.4 0.79 27.31 0.79 27.27"/><polygon class="cls-315" points="0.79 27.24 59.21 22.34 59.21 22.37 0.79 27.27 0.79 27.24"/><polygon class="cls-316" points="0.79 27.2 59.21 22.3 59.21 22.34 0.79 27.24 0.79 27.2"/><polygon class="cls-317" points="0.79 27.17 59.21 22.27 59.21 22.3 0.79 27.2 0.79 27.17"/><polygon class="cls-318" points="0.79 27.14 59.21 22.23 59.21 22.27 0.79 27.17 0.79 27.14"/><polygon class="cls-319" points="0.79 27.1 59.21 22.2 59.21 22.23 0.79 27.14 0.79 27.1"/><polygon class="cls-320" points="0.79 27.07 59.21 22.16 59.21 22.2 0.79 27.1 0.79 27.07"/><polygon class="cls-321" points="0.79 27.03 59.21 22.13 59.21 22.16 0.79 27.07 0.79 27.03"/><polygon class="cls-322" points="0.79 27 59.21 22.1 59.21 22.13 0.79 27.03 0.79 27"/><polygon class="cls-323" points="0.79 26.96 59.21 22.06 59.21 22.1 0.79 27 0.79 26.96"/><polygon class="cls-324" points="0.79 26.93 59.21 22.03 59.21 22.06 0.79 26.96 0.79 26.93"/><polygon class="cls-325" points="0.79 26.89 59.21 21.99 59.21 22.03 0.79 26.93 0.79 26.89"/><polygon class="cls-326" points="0.79 26.86 59.21 21.96 59.21 21.99 0.79 26.89 0.79 26.86"/><polygon class="cls-327" points="0.79 26.83 59.21 21.93 59.21 21.96 0.79 26.86 0.79 26.83"/><polygon class="cls-328" points="0.79 26.79 59.21 21.89 59.21 21.93 0.79 26.83 0.79 26.79"/><polygon class="cls-329" points="0.79 26.76 59.21 21.86 59.21 21.89 0.79 26.79 0.79 26.76"/><polygon class="cls-330" points="0.79 26.72 59.21 21.82 59.21 21.86 0.79 26.76 0.79 26.72"/><polygon class="cls-331" points="0.79 26.69 59.21 21.79 59.21 21.82 0.79 26.72 0.79 26.69"/><polygon class="cls-332" points="0.79 26.66 59.21 21.75 59.21 21.79 0.79 26.69 0.79 26.66"/><polygon class="cls-333" points="0.79 26.62 59.21 21.72 59.21 21.75 0.79 26.66 0.79 26.62"/><polygon class="cls-334" points="0.79 26.59 59.21 21.68 59.21 21.72 0.79 26.62 0.79 26.59"/><polygon class="cls-335" points="0.79 26.55 59.21 21.65 59.21 21.68 0.79 26.59 0.79 26.55"/><polygon class="cls-336" points="0.79 26.52 59.21 21.62 59.21 21.65 0.79 26.55 0.79 26.52"/><polygon class="cls-337" points="0.79 26.48 59.21 21.58 59.21 21.62 0.79 26.52 0.79 26.48"/><polygon class="cls-338" points="0.79 26.45 59.21 21.55 59.21 21.58 0.79 26.48 0.79 26.45"/><polygon class="cls-339" points="0.79 26.42 59.21 21.51 59.21 21.55 0.79 26.45 0.79 26.42"/><polygon class="cls-340" points="0.79 26.38 59.21 21.48 59.21 21.51 0.79 26.42 0.79 26.38"/><polygon class="cls-341" points="0.79 26.35 59.21 21.45 59.21 21.48 0.79 26.38 0.79 26.35"/><polygon class="cls-342" points="0.79 26.31 59.21 21.41 59.21 21.45 0.79 26.35 0.79 26.31"/><polygon class="cls-343" points="0.79 26.28 59.21 21.38 59.21 21.41 0.79 26.31 0.79 26.28"/><polygon class="cls-344" points="0.79 26.25 59.21 21.34 59.21 21.38 0.79 26.28 0.79 26.25"/><polygon class="cls-345" points="0.79 26.21 59.21 21.31 59.21 21.34 0.79 26.25 0.79 26.21"/><polygon class="cls-346" points="0.79 26.18 59.21 21.27 59.21 21.31 0.79 26.21 0.79 26.18"/><polygon class="cls-347" points="0.79 26.14 59.21 21.24 59.21 21.27 0.79 26.18 0.79 26.14"/><polygon class="cls-348" points="0.79 26.11 59.21 21.21 59.21 21.24 0.79 26.14 0.79 26.11"/><polygon class="cls-349" points="0.79 26.07 59.21 21.17 59.21 21.21 0.79 26.11 0.79 26.07"/><polygon class="cls-350" points="0.79 26.04 59.21 21.14 59.21 21.17 0.79 26.07 0.79 26.04"/><polygon class="cls-351" points="0.79 26 59.21 21.1 59.21 21.14 0.79 26.04 0.79 26"/><polygon class="cls-352" points="0.79 25.97 59.21 21.07 59.21 21.1 0.79 26 0.79 25.97"/><polygon class="cls-353" points="0.79 25.94 59.21 21.04 59.21 21.07 0.79 25.97 0.79 25.94"/><polygon class="cls-354" points="0.79 25.9 59.21 21 59.21 21.04 0.79 25.94 0.79 25.9"/><polygon class="cls-355" points="0.79 25.87 59.21 20.97 59.21 21 0.79 25.9 0.79 25.87"/><polygon class="cls-356" points="0.79 25.83 59.21 20.93 59.21 20.97 0.79 25.87 0.79 25.83"/><polygon class="cls-357" points="0.79 25.8 59.21 20.9 59.21 20.93 0.79 25.83 0.79 25.8"/><polygon class="cls-358" points="0.79 25.77 59.21 20.86 59.21 20.9 0.79 25.8 0.79 25.77"/><polygon class="cls-359" points="0.79 25.73 59.21 20.83 59.21 20.86 0.79 25.77 0.79 25.73"/><polygon class="cls-360" points="0.79 25.7 59.21 20.8 59.21 20.83 0.79 25.73 0.79 25.7"/><polygon class="cls-361" points="0.79 25.66 59.21 20.76 59.21 20.8 0.79 25.7 0.79 25.66"/><polygon class="cls-362" points="0.79 25.63 59.21 20.73 59.21 20.76 0.79 25.66 0.79 25.63"/><polygon class="cls-363" points="0.79 25.59 59.21 20.69 59.21 20.73 0.79 25.63 0.79 25.59"/><polygon class="cls-364" points="0.79 25.56 59.21 20.66 59.21 20.69 0.79 25.59 0.79 25.56"/><polygon class="cls-365" points="0.79 25.53 59.21 20.62 59.21 20.66 0.79 25.56 0.79 25.53"/><polygon class="cls-366" points="0.79 25.49 59.21 20.59 59.21 20.62 0.79 25.53 0.79 25.49"/><polygon class="cls-367" points="0.79 25.46 59.21 20.56 59.21 20.59 0.79 25.49 0.79 25.46"/><polygon class="cls-368" points="0.79 25.42 59.21 20.52 59.21 20.56 0.79 25.46 0.79 25.42"/><polygon class="cls-369" points="0.79 25.39 59.21 20.49 59.21 20.52 0.79 25.42 0.79 25.39"/><polygon class="cls-370" points="0.79 25.36 59.21 20.45 59.21 20.49 0.79 25.39 0.79 25.36"/><polygon class="cls-371" points="0.79 25.32 59.21 20.42 59.21 20.45 0.79 25.36 0.79 25.32"/><polygon class="cls-372" points="0.79 25.29 59.21 20.39 59.21 20.42 0.79 25.32 0.79 25.29"/><polygon class="cls-373" points="0.79 25.25 59.21 20.35 59.21 20.39 0.79 25.29 0.79 25.25"/><polygon class="cls-374" points="0.79 25.22 59.21 20.32 59.21 20.35 0.79 25.25 0.79 25.22"/><polygon class="cls-375" points="0.79 25.18 59.21 20.28 59.21 20.32 0.79 25.22 0.79 25.18"/><polygon class="cls-376" points="0.79 25.15 59.21 20.25 59.21 20.28 0.79 25.18 0.79 25.15"/><polygon class="cls-377" points="0.79 25.11 59.21 20.21 59.21 20.25 0.79 25.15 0.79 25.11"/><polygon class="cls-378" points="0.79 25.08 59.21 20.18 59.21 20.21 0.79 25.11 0.79 25.08"/><polygon class="cls-379" points="0.79 25.05 59.21 20.14 59.21 20.18 0.79 25.08 0.79 25.05"/><polygon class="cls-380" points="0.79 25.01 59.21 20.11 59.21 20.14 0.79 25.05 0.79 25.01"/><polygon class="cls-381" points="0.79 24.98 59.21 20.08 59.21 20.11 0.79 25.01 0.79 24.98"/><polygon class="cls-382" points="0.79 24.94 59.21 20.04 59.21 20.08 0.79 24.98 0.79 24.94"/><polygon class="cls-383" points="0.79 24.91 59.21 20.01 59.21 20.04 0.79 24.94 0.79 24.91"/><polygon class="cls-384" points="0.79 24.88 59.21 19.97 59.21 20.01 0.79 24.91 0.79 24.88"/><polygon class="cls-385" points="0.79 24.84 59.21 19.94 59.21 19.97 0.79 24.88 0.79 24.84"/><polygon class="cls-386" points="0.79 24.81 59.21 19.91 59.21 19.94 0.79 24.84 0.79 24.81"/><polygon class="cls-387" points="0.79 24.77 59.21 19.87 59.21 19.91 0.79 24.81 0.79 24.77"/><polygon class="cls-388" points="0.79 24.74 59.21 19.84 59.21 19.87 0.79 24.77 0.79 24.74"/><polygon class="cls-389" points="0.79 24.7 59.21 19.8 59.21 19.84 0.79 24.74 0.79 24.7"/><polygon class="cls-390" points="0.79 24.67 59.21 19.77 59.21 19.8 0.79 24.7 0.79 24.67"/><polygon class="cls-391" points="0.79 24.64 59.21 19.73 59.21 19.77 0.79 24.67 0.79 24.64"/><polygon class="cls-392" points="0.79 24.6 59.21 19.7 59.21 19.73 0.79 24.64 0.79 24.6"/><polygon class="cls-393" points="0.79 24.57 59.21 19.67 59.21 19.7 0.79 24.6 0.79 24.57"/><polygon class="cls-394" points="0.79 24.53 59.21 19.63 59.21 19.67 0.79 24.57 0.79 24.53"/><polygon class="cls-395" points="0.79 24.5 59.21 19.6 59.21 19.63 0.79 24.53 0.79 24.5"/><polygon class="cls-396" points="0.79 24.46 59.21 19.56 59.21 19.6 0.79 24.5 0.79 24.46"/><polygon class="cls-397" points="0.79 24.43 59.21 19.53 59.21 19.56 0.79 24.46 0.79 24.43"/><polygon class="cls-398" points="0.79 24.4 59.21 19.5 59.21 19.53 0.79 24.43 0.79 24.4"/><polygon class="cls-399" points="0.79 24.36 59.21 19.46 59.21 19.5 0.79 24.4 0.79 24.36"/><polygon class="cls-400" points="0.79 24.33 59.21 19.43 59.21 19.46 0.79 24.36 0.79 24.33"/><polygon class="cls-401" points="0.79 24.29 59.21 19.39 59.21 19.43 0.79 24.33 0.79 24.29"/><polygon class="cls-402" points="0.79 24.26 59.21 19.36 59.21 19.39 0.79 24.29 0.79 24.26"/><polygon class="cls-403" points="0.79 24.23 59.21 19.32 59.21 19.36 0.79 24.26 0.79 24.23"/><polygon class="cls-404" points="0.79 24.19 59.21 19.29 59.21 19.32 0.79 24.23 0.79 24.19"/><polygon class="cls-405" points="0.79 24.16 59.21 19.25 59.21 19.29 0.79 24.19 0.79 24.16"/><polygon class="cls-406" points="0.79 24.12 59.21 19.22 59.21 19.25 0.79 24.16 0.79 24.12"/><polygon class="cls-407" points="0.79 24.09 59.21 19.19 59.21 19.22 0.79 24.12 0.79 24.09"/><polygon class="cls-408" points="0.79 24.05 59.21 19.15 59.21 19.19 0.79 24.09 0.79 24.05"/><polygon class="cls-409" points="0.79 24.02 59.21 19.12 59.21 19.15 0.79 24.05 0.79 24.02"/><polygon class="cls-410" points="0.79 23.99 59.21 19.08 59.21 19.12 0.79 24.02 0.79 23.99"/><polygon class="cls-411" points="0.79 23.95 59.21 19.05 59.21 19.08 0.79 23.99 0.79 23.95"/><polygon class="cls-412" points="0.79 23.92 59.21 19.02 59.21 19.05 0.79 23.95 0.79 23.92"/><polygon class="cls-413" points="0.79 23.88 59.21 18.98 59.21 19.02 0.79 23.92 0.79 23.88"/><polygon class="cls-414" points="0.79 23.85 59.21 18.95 59.21 18.98 0.79 23.88 0.79 23.85"/><polygon class="cls-415" points="0.79 23.81 59.21 18.91 59.21 18.95 0.79 23.85 0.79 23.81"/><polygon class="cls-416" points="0.79 23.78 59.21 18.88 59.21 18.91 0.79 23.81 0.79 23.78"/><polygon class="cls-417" points="0.79 23.75 59.21 18.84 59.21 18.88 0.79 23.78 0.79 23.75"/><polygon class="cls-418" points="0.79 23.71 59.21 18.81 59.21 18.84 0.79 23.75 0.79 23.71"/><polygon class="cls-419" points="0.79 23.68 59.21 18.78 59.21 18.81 0.79 23.71 0.79 23.68"/><polygon class="cls-420" points="0.79 23.64 59.21 18.74 59.21 18.78 0.79 23.68 0.79 23.64"/><polygon class="cls-421" points="0.79 23.61 59.21 18.71 59.21 18.74 0.79 23.64 0.79 23.61"/><polygon class="cls-422" points="0.79 23.57 59.21 18.67 59.21 18.71 0.79 23.61 0.79 23.57"/><polygon class="cls-423" points="0.79 23.54 59.21 18.64 59.21 18.67 0.79 23.57 0.79 23.54"/><polygon class="cls-424" points="0.79 23.51 59.21 18.61 59.21 18.64 0.79 23.54 0.79 23.51"/><polygon class="cls-425" points="0.79 23.47 59.21 18.57 59.21 18.61 0.79 23.51 0.79 23.47"/><polygon class="cls-426" points="0.79 23.44 59.21 18.54 59.21 18.57 0.79 23.47 0.79 23.44"/><polygon class="cls-427" points="0.79 23.4 59.21 18.5 59.21 18.54 0.79 23.44 0.79 23.4"/><polygon class="cls-428" points="0.79 23.37 59.21 18.47 59.21 18.5 0.79 23.4 0.79 23.37"/><polygon class="cls-429" points="0.79 23.34 59.21 18.43 59.21 18.47 0.79 23.37 0.79 23.34"/><polygon class="cls-430" points="0.79 23.3 59.21 18.4 59.21 18.43 0.79 23.34 0.79 23.3"/><polygon class="cls-431" points="0.79 23.27 59.21 18.36 59.21 18.4 0.79 23.3 0.79 23.27"/><polygon class="cls-432" points="0.79 23.23 59.21 18.33 59.21 18.36 0.79 23.27 0.79 23.23"/><polygon class="cls-433" points="0.79 23.2 59.21 18.3 59.21 18.33 0.79 23.23 0.79 23.2"/><polygon class="cls-434" points="0.79 23.16 59.21 18.26 59.21 18.3 0.79 23.2 0.79 23.16"/><polygon class="cls-435" points="0.79 23.13 59.21 18.23 59.21 18.26 0.79 23.16 0.79 23.13"/><polygon class="cls-436" points="0.79 23.1 59.21 18.19 59.21 18.23 0.79 23.13 0.79 23.1"/><polygon class="cls-437" points="0.79 23.06 59.21 18.16 59.21 18.19 0.79 23.1 0.79 23.06"/><polygon class="cls-438" points="0.79 23.03 59.21 18.13 59.21 18.16 0.79 23.06 0.79 23.03"/><polygon class="cls-439" points="0.79 22.99 59.21 18.09 59.21 18.13 0.79 23.03 0.79 22.99"/><polygon class="cls-440" points="0.79 22.96 59.21 18.06 59.21 18.09 0.79 22.99 0.79 22.96"/><polygon class="cls-440" points="0.79 22.87 59.21 17.97 59.21 18.06 0.79 22.96 0.79 22.87"/><polygon class="cls-441" points="0.79 22.78 59.21 17.88 59.21 17.97 0.79 22.87 0.79 22.78"/><polygon class="cls-442" points="0.79 22.69 59.21 17.79 59.21 17.88 0.79 22.78 0.79 22.69"/><polygon class="cls-443" points="0.79 22.61 59.21 17.7 59.21 17.79 0.79 22.69 0.79 22.61"/><polygon class="cls-444" points="0.79 22.52 59.21 17.61 59.21 17.7 0.79 22.61 0.79 22.52"/><polygon class="cls-445" points="0.79 22.43 59.21 17.53 59.21 17.61 0.79 22.52 0.79 22.43"/><polygon class="cls-446" points="0.79 22.34 59.21 17.44 59.21 17.53 0.79 22.43 0.79 22.34"/><polygon class="cls-447" points="0.79 22.25 59.21 17.35 59.21 17.44 0.79 22.34 0.79 22.25"/><polygon class="cls-448" points="0.79 22.16 59.21 17.26 59.21 17.35 0.79 22.25 0.79 22.16"/><polygon class="cls-449" points="0.79 22.07 59.21 17.17 59.21 17.26 0.79 22.16 0.79 22.07"/><polygon class="cls-450" points="0.79 21.99 59.21 17.09 59.21 17.17 0.79 22.07 0.79 21.99"/><polygon class="cls-451" points="0.79 21.9 59.21 17 59.21 17.09 0.79 21.99 0.79 21.9"/><polygon class="cls-452" points="0.79 21.81 59.21 16.91 59.21 17 0.79 21.9 0.79 21.81"/><polygon class="cls-453" points="0.79 21.72 59.21 16.82 59.21 16.91 0.79 21.81 0.79 21.72"/><polygon class="cls-454" points="0.79 21.63 59.21 16.73 59.21 16.82 0.79 21.72 0.79 21.63"/><polygon class="cls-455" points="0.79 21.54 59.21 16.64 59.21 16.73 0.79 21.63 0.79 21.54"/><polygon class="cls-456" points="0.79 21.46 59.21 16.55 59.21 16.64 0.79 21.54 0.79 21.46"/><polygon class="cls-457" points="0.79 21.37 59.21 16.47 59.21 16.55 0.79 21.46 0.79 21.37"/><polygon class="cls-458" points="0.79 21.28 59.21 16.38 59.21 16.47 0.79 21.37 0.79 21.28"/><polygon class="cls-459" points="0.79 21.19 59.21 16.29 59.21 16.38 0.79 21.28 0.79 21.19"/><polygon class="cls-460" points="0.79 21.1 59.21 16.2 59.21 16.29 0.79 21.19 0.79 21.1"/><polygon class="cls-461" points="0.79 21.01 59.21 16.11 59.21 16.2 0.79 21.1 0.79 21.01"/><polygon class="cls-462" points="0.79 20.93 59.21 16.02 59.21 16.11 0.79 21.01 0.79 20.93"/><polygon class="cls-463" points="0.79 20.84 59.21 15.94 59.21 16.02 0.79 20.93 0.79 20.84"/><polygon class="cls-464" points="0.79 20.75 59.21 15.85 59.21 15.94 0.79 20.84 0.79 20.75"/><polygon class="cls-465" points="0.79 20.66 59.21 15.76 59.21 15.85 0.79 20.75 0.79 20.66"/><polygon class="cls-466" points="0.79 20.57 59.21 15.67 59.21 15.76 0.79 20.66 0.79 20.57"/><polygon class="cls-467" points="0.79 20.48 59.21 15.58 59.21 15.67 0.79 20.57 0.79 20.48"/><polygon class="cls-468" points="0.79 20.39 59.21 15.49 59.21 15.58 0.79 20.48 0.79 20.39"/><polygon class="cls-469" points="0.79 20.31 59.21 15.4 59.21 15.49 0.79 20.39 0.79 20.31"/><polygon class="cls-470" points="0.79 20.22 59.21 15.32 59.21 15.4 0.79 20.31 0.79 20.22"/><polygon class="cls-471" points="0.79 20.13 59.21 15.23 59.21 15.32 0.79 20.22 0.79 20.13"/><polygon class="cls-472" points="0.79 20.04 59.21 15.14 59.21 15.23 0.79 20.13 0.79 20.04"/><polygon class="cls-473" points="0.79 19.95 59.21 15.05 59.21 15.14 0.79 20.04 0.79 19.95"/><polygon class="cls-474" points="0.79 19.86 59.21 14.96 59.21 15.05 0.79 19.95 0.79 19.86"/><polygon class="cls-475" points="0.79 19.78 59.21 14.87 59.21 14.96 0.79 19.86 0.79 19.78"/><polygon class="cls-476" points="0.79 19.69 59.21 14.79 59.21 14.87 0.79 19.78 0.79 19.69"/><polygon class="cls-477" points="0.79 19.6 59.21 14.7 59.21 14.79 0.79 19.69 0.79 19.6"/><polygon class="cls-478" points="0.79 19.51 59.21 14.61 59.21 14.7 0.79 19.6 0.79 19.51"/><polygon class="cls-479" points="0.79 19.42 59.21 14.52 59.21 14.61 0.79 19.51 0.79 19.42"/><polygon class="cls-480" points="0.79 19.33 59.21 14.43 59.21 14.52 0.79 19.42 0.79 19.33"/><polygon class="cls-481" points="0.79 19.25 59.21 14.34 59.21 14.43 0.79 19.33 0.79 19.25"/><polygon class="cls-482" points="0.79 19.16 59.21 14.26 59.21 14.34 0.79 19.25 0.79 19.16"/><polygon class="cls-483" points="0.79 19.07 59.21 14.17 59.21 14.26 0.79 19.16 0.79 19.07"/><polygon class="cls-484" points="0.79 18.98 59.21 14.08 59.21 14.1 59.21 14.17 0.79 19.07 0.79 18.98"/><rect class="cls-485" x="0.69" y="16.44" width="58.62" height="0.09" transform="translate(-1.27 2.57) rotate(-4.8)"/><rect class="cls-486" x="0.69" y="16.35" width="58.62" height="0.09" transform="translate(-1.27 2.56) rotate(-4.8)"/><rect class="cls-487" x="0.69" y="16.26" width="58.61" height="0.09" transform="translate(-1.26 2.56) rotate(-4.8)"/><rect class="cls-488" x="0.69" y="16.18" width="58.6" height="0.09" transform="matrix(1, -0.08, 0.08, 1, -1.25, 2.56)"/><rect class="cls-489" x="0.69" y="16.09" width="58.59" height="0.09" transform="translate(-1.24 2.56) rotate(-4.8)"/><rect class="cls-490" x="0.69" y="16" width="58.59" height="0.09" transform="translate(-1.24 2.56) rotate(-4.8)"/><rect class="cls-491" x="0.69" y="15.91" width="58.58" height="0.09" transform="translate(-1.23 2.56) rotate(-4.8)"/><rect class="cls-492" x="0.69" y="15.82" width="58.57" height="0.09" transform="translate(-1.22 2.56) rotate(-4.8)"/><rect class="cls-493" x="0.69" y="15.74" width="58.57" height="0.09" transform="translate(-1.21 2.56) rotate(-4.8)"/><rect class="cls-494" x="0.69" y="15.65" width="58.56" height="0.09" transform="translate(-1.21 2.56) rotate(-4.8)"/><rect class="cls-495" x="0.69" y="15.56" width="58.55" height="0.09" transform="translate(-1.2 2.56) rotate(-4.8)"/><rect class="cls-496" x="0.69" y="15.47" width="58.54" height="0.09" transform="translate(-1.19 2.56) rotate(-4.8)"/><rect class="cls-497" x="0.69" y="15.38" width="58.54" height="0.09" transform="translate(-1.18 2.56) rotate(-4.8)"/><rect class="cls-498" x="0.69" y="15.3" width="58.53" height="0.09" transform="translate(-1.18 2.56) rotate(-4.8)"/><rect class="cls-499" x="0.69" y="15.21" width="58.52" height="0.09" transform="translate(-1.17 2.56) rotate(-4.8)"/><rect class="cls-500" x="0.69" y="15.12" width="58.51" height="0.09" transform="translate(-1.16 2.56) rotate(-4.8)"/><rect class="cls-501" x="0.69" y="15.03" width="58.51" height="0.09" transform="translate(-1.16 2.56) rotate(-4.8)"/><rect class="cls-502" x="0.69" y="14.94" width="58.5" height="0.09" transform="translate(-1.15 2.56) rotate(-4.8)"/><rect class="cls-503" x="0.69" y="14.85" width="58.49" height="0.09" transform="translate(-1.14 2.55) rotate(-4.8)"/><rect class="cls-504" x="0.69" y="14.77" width="58.48" height="0.09" transform="translate(-1.13 2.55) rotate(-4.8)"/><rect class="cls-505" x="0.69" y="14.68" width="58.48" height="0.09" transform="translate(-1.13 2.55) rotate(-4.8)"/><rect class="cls-506" x="0.69" y="14.59" width="58.47" height="0.09" transform="translate(-1.12 2.55) rotate(-4.8)"/><rect class="cls-507" x="0.69" y="14.5" width="58.46" height="0.09" transform="translate(-1.11 2.55) rotate(-4.8)"/><rect class="cls-508" x="0.69" y="14.41" width="58.45" height="0.09" transform="translate(-1.1 2.55) rotate(-4.8)"/><rect class="cls-509" x="0.69" y="14.33" width="58.45" height="0.09" transform="translate(-1.1 2.55) rotate(-4.8)"/><rect class="cls-510" x="0.69" y="14.24" width="58.44" height="0.09" transform="translate(-1.09 2.55) rotate(-4.8)"/><rect class="cls-511" x="0.69" y="14.15" width="58.43" height="0.09" transform="translate(-1.08 2.55) rotate(-4.8)"/><rect class="cls-512" x="0.69" y="14.06" width="58.42" height="0.09" transform="translate(-1.07 2.55) rotate(-4.8)"/><rect class="cls-513" x="0.69" y="13.97" width="58.42" height="0.09" transform="translate(-1.07 2.55) rotate(-4.8)"/><rect class="cls-514" x="0.69" y="13.89" width="58.41" height="0.09" transform="translate(-1.06 2.55) rotate(-4.8)"/><rect class="cls-515" x="0.69" y="13.8" width="58.4" height="0.09" transform="translate(-1.05 2.55) rotate(-4.8)"/><rect class="cls-516" x="0.69" y="13.71" width="58.4" height="0.09" transform="translate(-1.05 2.55) rotate(-4.8)"/><rect class="cls-517" x="0.69" y="13.62" width="58.39" height="0.09" transform="translate(-1.04 2.55) rotate(-4.8)"/><rect class="cls-518" x="0.69" y="13.53" width="58.38" height="0.09" transform="matrix(1, -0.08, 0.08, 1, -1.03, 2.55)"/><rect class="cls-519" x="0.69" y="13.45" width="58.37" height="0.09" transform="translate(-1.02 2.54) rotate(-4.8)"/><rect class="cls-520" x="0.69" y="13.36" width="58.37" height="0.09" transform="translate(-1.02 2.54) rotate(-4.8)"/><rect class="cls-521" x="0.69" y="13.27" width="58.36" height="0.09" transform="translate(-1.01 2.54) rotate(-4.8)"/><rect class="cls-522" x="0.69" y="13.18" width="58.35" height="0.09" transform="translate(-1 2.54) rotate(-4.8)"/><rect class="cls-523" x="0.69" y="13.09" width="58.34" height="0.09" transform="translate(-0.99 2.54) rotate(-4.8)"/><rect class="cls-524" x="0.69" y="13" width="58.34" height="0.09" transform="translate(-0.99 2.54) rotate(-4.8)"/><rect class="cls-525" x="0.69" y="12.92" width="58.33" height="0.09" transform="translate(-0.98 2.54) rotate(-4.8)"/><rect class="cls-526" x="0.69" y="12.83" width="58.32" height="0.09" transform="translate(-0.97 2.54) rotate(-4.8)"/><rect class="cls-527" x="0.69" y="12.74" width="58.31" height="0.09" transform="matrix(1, -0.08, 0.08, 1, -0.96, 2.54)"/><rect class="cls-528" x="0.69" y="12.65" width="58.31" height="0.09" transform="translate(-0.96 2.54) rotate(-4.8)"/><rect class="cls-529" x="0.69" y="12.56" width="58.3" height="0.09" transform="matrix(1, -0.08, 0.08, 1, -0.95, 2.54)"/><rect class="cls-530" x="0.69" y="12.48" width="58.29" height="0.09" transform="matrix(1, -0.08, 0.08, 1, -0.94, 2.54)"/><rect class="cls-531" x="0.69" y="12.39" width="58.28" height="0.09" transform="translate(-0.93 2.54) rotate(-4.8)"/><rect class="cls-532" x="0.69" y="12.3" width="58.28" height="0.09" transform="translate(-0.93 2.54) rotate(-4.8)"/><rect class="cls-533" x="0.69" y="12.21" width="58.27" height="0.09" transform="translate(-0.92 2.54) rotate(-4.8)"/><rect class="cls-534" x="0.69" y="12.12" width="58.26" height="0.09" transform="matrix(1, -0.08, 0.08, 1, -0.91, 2.54)"/><rect class="cls-535" x="0.69" y="12.04" width="58.25" height="0.09" transform="translate(-0.91 2.53) rotate(-4.8)"/><rect class="cls-536" x="0.69" y="11.95" width="58.25" height="0.09" transform="translate(-0.9 2.53) rotate(-4.8)"/><rect class="cls-537" x="0.69" y="11.86" width="58.24" height="0.09" transform="translate(-0.89 2.53) rotate(-4.8)"/><rect class="cls-538" x="0.69" y="11.77" width="58.23" height="0.09" transform="translate(-0.88 2.53) rotate(-4.8)"/><rect class="cls-539" x="0.69" y="11.68" width="58.23" height="0.09" transform="translate(-0.88 2.53) rotate(-4.8)"/><rect class="cls-540" x="0.69" y="11.59" width="58.22" height="0.09" transform="translate(-0.87 2.53) rotate(-4.8)"/><rect class="cls-541" x="0.69" y="11.51" width="58.21" height="0.09" transform="translate(-0.86 2.53) rotate(-4.8)"/><rect class="cls-542" x="0.69" y="11.42" width="58.2" height="0.09" transform="translate(-0.85 2.53) rotate(-4.8)"/><rect class="cls-543" x="0.69" y="11.33" width="58.2" height="0.09" transform="translate(-0.85 2.53) rotate(-4.8)"/><rect class="cls-544" x="0.69" y="11.24" width="58.19" height="0.09" transform="translate(-0.84 2.53) rotate(-4.8)"/><rect class="cls-545" x="0.69" y="11.15" width="58.18" height="0.09" transform="translate(-0.83 2.53) rotate(-4.8)"/><rect class="cls-546" x="0.69" y="11.07" width="58.17" height="0.09" transform="translate(-0.82 2.53) rotate(-4.8)"/><rect class="cls-547" x="0.69" y="10.98" width="58.17" height="0.09" transform="translate(-0.82 2.53) rotate(-4.8)"/><rect class="cls-548" x="0.69" y="10.89" width="58.16" height="0.09" transform="translate(-0.81 2.53) rotate(-4.8)"/><rect class="cls-549" x="0.69" y="10.8" width="58.15" height="0.09" transform="translate(-0.8 2.53) rotate(-4.8)"/><rect class="cls-550" x="0.69" y="10.71" width="58.14" height="0.09" transform="translate(-0.8 2.53) rotate(-4.8)"/><rect class="cls-551" x="0.69" y="10.63" width="58.14" height="0.09" transform="translate(-0.79 2.52) rotate(-4.8)"/><rect class="cls-552" x="0.69" y="10.54" width="58.13" height="0.09" transform="translate(-0.78 2.52) rotate(-4.8)"/><rect class="cls-553" x="0.69" y="10.45" width="58.12" height="0.09" transform="translate(-0.77 2.52) rotate(-4.8)"/><rect class="cls-554" x="0.69" y="10.36" width="58.11" height="0.09" transform="translate(-0.77 2.52) rotate(-4.8)"/><rect class="cls-555" x="0.69" y="10.27" width="58.11" height="0.09" transform="translate(-0.76 2.52) rotate(-4.8)"/><rect class="cls-556" x="0.69" y="10.19" width="58.1" height="0.09" transform="translate(-0.75 2.52) rotate(-4.8)"/><rect class="cls-557" x="0.69" y="10.1" width="58.09" height="0.09" transform="translate(-0.74 2.52) rotate(-4.8)"/><rect class="cls-558" x="0.69" y="10.01" width="58.08" height="0.09" transform="translate(-0.74 2.52) rotate(-4.8)"/><rect class="cls-559" x="0.69" y="9.92" width="58.08" height="0.09" transform="translate(-0.73 2.52) rotate(-4.8)"/><rect class="cls-560" x="0.69" y="9.83" width="58.07" height="0.09" transform="translate(-0.72 2.52) rotate(-4.8)"/><rect class="cls-561" x="0.69" y="9.74" width="58.06" height="0.09" transform="translate(-0.71 2.52) rotate(-4.8)"/><rect class="cls-562" x="0.69" y="9.66" width="58.06" height="0.09" transform="translate(-0.71 2.52) rotate(-4.8)"/><rect class="cls-563" x="0.69" y="9.57" width="58.05" height="0.09" transform="matrix(1, -0.08, 0.08, 1, -0.7, 2.52)"/><rect class="cls-564" x="0.69" y="9.48" width="58.04" height="0.09" transform="translate(-0.69 2.52) rotate(-4.8)"/><rect class="cls-565" x="0.69" y="9.39" width="58.03" height="0.09" transform="translate(-0.68 2.52) rotate(-4.8)"/><rect class="cls-566" x="0.69" y="9.3" width="58.03" height="0.09" transform="translate(-0.68 2.52) rotate(-4.8)"/><rect class="cls-567" x="0.69" y="9.22" width="58.02" height="0.09" transform="translate(-0.67 2.51) rotate(-4.8)"/><rect class="cls-568" x="0.69" y="9.13" width="58.01" height="0.09" transform="translate(-0.66 2.51) rotate(-4.8)"/><rect class="cls-569" x="0.69" y="9.04" width="58" height="0.09" transform="translate(-0.66 2.51) rotate(-4.8)"/><rect class="cls-570" x="0.69" y="8.95" width="58" height="0.09" transform="translate(-0.65 2.51) rotate(-4.8)"/><rect class="cls-571" x="0.69" y="8.86" width="57.99" height="0.09" transform="translate(-0.64 2.51) rotate(-4.8)"/><rect class="cls-572" x="0.69" y="8.78" width="57.98" height="0.09" transform="translate(-0.63 2.51) rotate(-4.8)"/><rect class="cls-573" x="0.69" y="8.69" width="57.97" height="0.09" transform="translate(-0.63 2.51) rotate(-4.8)"/><rect class="cls-574" x="0.69" y="8.6" width="57.97" height="0.09" transform="translate(-0.62 2.51) rotate(-4.8)"/><rect class="cls-575" x="0.69" y="8.51" width="57.96" height="0.09" transform="translate(-0.61 2.51) rotate(-4.8)"/><rect class="cls-576" x="0.69" y="8.42" width="57.95" height="0.09" transform="translate(-0.6 2.51) rotate(-4.8)"/><rect class="cls-577" x="0.69" y="8.33" width="57.94" height="0.09" transform="translate(-0.6 2.51) rotate(-4.8)"/><rect class="cls-578" x="0.69" y="8.25" width="57.94" height="0.09" transform="translate(-0.59 2.51) rotate(-4.8)"/><rect class="cls-579" x="0.69" y="8.16" width="57.93" height="0.09" transform="translate(-0.58 2.51) rotate(-4.8)"/><rect class="cls-580" x="0.69" y="8.07" width="57.92" height="0.09" transform="translate(-0.57 2.51) rotate(-4.8)"/><rect class="cls-581" x="0.69" y="7.98" width="57.91" height="0.09" transform="translate(-0.57 2.51) rotate(-4.8)"/><rect class="cls-582" x="0.69" y="7.89" width="57.91" height="0.09" transform="matrix(1, -0.08, 0.08, 1, -0.56, 2.51)"/><rect class="cls-583" x="0.69" y="7.81" width="57.9" height="0.09" transform="translate(-0.55 2.51) rotate(-4.8)"/><rect class="cls-584" x="0.69" y="7.72" width="57.89" height="0.09" transform="translate(-0.55 2.5) rotate(-4.8)"/><rect class="cls-585" x="0.69" y="7.63" width="57.89" height="0.09" transform="translate(-0.54 2.5) rotate(-4.8)"/><rect class="cls-586" x="0.69" y="7.54" width="57.88" height="0.09" transform="translate(-0.53 2.5) rotate(-4.8)"/><rect class="cls-587" x="0.69" y="7.45" width="57.87" height="0.09" transform="matrix(1, -0.08, 0.08, 1, -0.52, 2.5)"/><rect class="cls-588" x="0.69" y="7.37" width="57.86" height="0.09" transform="translate(-0.52 2.5) rotate(-4.8)"/><rect class="cls-589" x="0.69" y="7.28" width="57.86" height="0.09" transform="translate(-0.51 2.5) rotate(-4.8)"/><rect class="cls-590" x="0.69" y="7.19" width="57.85" height="0.09" transform="translate(-0.5 2.5) rotate(-4.8)"/><rect class="cls-591" x="0.69" y="7.1" width="57.84" height="0.09" transform="translate(-0.49 2.5) rotate(-4.8)"/><rect class="cls-592" x="0.69" y="7.01" width="57.83" height="0.09" transform="translate(-0.49 2.5) rotate(-4.8)"/><rect class="cls-593" x="0.69" y="6.93" width="57.83" height="0.09" transform="translate(-0.48 2.5) rotate(-4.8)"/><rect class="cls-594" x="0.69" y="6.84" width="57.82" height="0.09" transform="translate(-0.47 2.5) rotate(-4.8)"/><rect class="cls-595" x="0.69" y="6.75" width="57.81" height="0.09" transform="matrix(1, -0.08, 0.08, 1, -0.46, 2.5)"/><rect class="cls-596" x="0.69" y="6.66" width="57.8" height="0.09" transform="translate(-0.46 2.5) rotate(-4.8)"/><rect class="cls-597" x="0.69" y="6.57" width="57.8" height="0.09" transform="translate(-0.45 2.5) rotate(-4.8)"/><rect class="cls-598" x="0.69" y="6.48" width="57.79" height="0.09" transform="translate(-0.44 2.5) rotate(-4.8)"/><rect class="cls-599" x="0.69" y="6.4" width="57.78" height="0.09" transform="translate(-0.43 2.5) rotate(-4.8)"/><rect class="cls-600" x="0.69" y="6.31" width="57.77" height="0.09" transform="translate(-0.43 2.49) rotate(-4.8)"/><rect class="cls-601" x="0.69" y="6.22" width="57.77" height="0.09" transform="translate(-0.42 2.49) rotate(-4.8)"/><rect class="cls-602" x="0.69" y="6.13" width="57.76" height="0.09" transform="translate(-0.41 2.49) rotate(-4.8)"/><rect class="cls-603" x="0.69" y="6.04" width="57.75" height="0.09" transform="translate(-0.41 2.49) rotate(-4.8)"/><rect class="cls-604" x="0.69" y="5.96" width="57.74" height="0.09" transform="translate(-0.4 2.49) rotate(-4.8)"/><rect class="cls-605" x="0.69" y="5.87" width="57.74" height="0.09" transform="translate(-0.39 2.49) rotate(-4.8)"/><rect class="cls-606" x="0.69" y="5.78" width="57.73" height="0.09" transform="translate(-0.38 2.49) rotate(-4.8)"/><rect class="cls-607" x="0.69" y="5.69" width="57.72" height="0.09" transform="translate(-0.38 2.49) rotate(-4.8)"/><rect class="cls-608" x="0.69" y="5.6" width="57.72" height="0.09" transform="translate(-0.37 2.49) rotate(-4.8)"/><rect class="cls-609" x="0.69" y="5.52" width="57.71" height="0.09" transform="translate(-0.36 2.49) rotate(-4.8)"/><rect class="cls-610" x="0.69" y="5.43" width="57.7" height="0.09" transform="translate(-0.35 2.49) rotate(-4.8)"/><rect class="cls-611" x="0.69" y="5.34" width="57.69" height="0.09" transform="translate(-0.35 2.49) rotate(-4.8)"/><rect class="cls-612" x="0.69" y="5.25" width="57.69" height="0.09" transform="translate(-0.34 2.49) rotate(-4.8)"/><rect class="cls-613" x="0.69" y="5.16" width="57.68" height="0.09" transform="translate(-0.33 2.49) rotate(-4.8)"/><rect class="cls-614" x="0.69" y="5.07" width="57.67" height="0.09" transform="matrix(1, -0.08, 0.08, 1, -0.32, 2.49)"/><rect class="cls-615" x="0.69" y="4.99" width="57.66" height="0.09" transform="translate(-0.32 2.49) rotate(-4.8)"/><rect class="cls-616" x="0.69" y="4.9" width="57.66" height="0.09" transform="matrix(1, -0.08, 0.08, 1, -0.31, 2.48)"/><rect class="cls-617" x="0.69" y="4.81" width="57.65" height="0.09" transform="translate(-0.3 2.48) rotate(-4.8)"/><rect class="cls-618" x="0.69" y="4.72" width="57.64" height="0.09" transform="matrix(1, -0.08, 0.08, 1, -0.3, 2.48)"/><rect class="cls-619" x="0.69" y="4.63" width="57.63" height="0.09" transform="translate(-0.29 2.48) rotate(-4.8)"/><rect class="cls-620" x="0.69" y="4.55" width="57.63" height="0.09" transform="translate(-0.28 2.48) rotate(-4.8)"/><rect class="cls-621" x="0.69" y="4.46" width="57.62" height="0.09" transform="translate(-0.27 2.48) rotate(-4.8)"/><rect class="cls-622" x="0.69" y="4.37" width="57.61" height="0.09" transform="translate(-0.27 2.48) rotate(-4.8)"/><rect class="cls-623" x="0.69" y="4.28" width="57.6" height="0.09" transform="matrix(1, -0.08, 0.08, 1, -0.26, 2.48)"/><rect class="cls-624" x="0.69" y="4.19" width="57.6" height="0.09" transform="translate(-0.25 2.48) rotate(-4.8)"/><rect class="cls-625" x="0.69" y="4.11" width="57.59" height="0.09" transform="translate(-0.24 2.48) rotate(-4.8)"/><rect class="cls-626" x="0.69" y="4.02" width="57.58" height="0.09" transform="translate(-0.24 2.48) rotate(-4.8)"/><rect class="cls-627" x="0.69" y="3.93" width="57.57" height="0.09" transform="translate(-0.23 2.48) rotate(-4.8)"/><rect class="cls-628" x="0.69" y="3.84" width="57.57" height="0.09" transform="translate(-0.22 2.48) rotate(-4.8)"/><rect class="cls-629" x="0.69" y="3.75" width="57.56" height="0.09" transform="translate(-0.21 2.48) rotate(-4.8)"/><rect class="cls-630" x="0.69" y="3.67" width="57.55" height="0.09" transform="translate(-0.21 2.48) rotate(-4.8)"/><rect class="cls-631" x="0.69" y="3.58" width="57.55" height="0.09" transform="translate(-0.2 2.48) rotate(-4.8)"/><rect class="cls-632" x="0.69" y="3.49" width="57.54" height="0.09" transform="translate(-0.19 2.47) rotate(-4.8)"/><polygon class="cls-633" points="0.79 5.8 57.86 1.02 58.12 1.02 58.12 1.08 0.79 5.89 0.79 5.8"/><polygon class="cls-634" points="0.79 5.72 56.8 1.02 57.86 1.02 0.79 5.8 0.79 5.72"/><polygon class="cls-635" points="0.79 5.63 55.75 1.02 56.8 1.02 0.79 5.72 0.79 5.63"/><polygon class="cls-636" points="0.79 5.54 54.7 1.02 55.75 1.02 0.79 5.63 0.79 5.54"/><polygon class="cls-637" points="0.79 5.45 53.64 1.02 54.7 1.02 0.79 5.54 0.79 5.45"/><polygon class="cls-638" points="0.79 5.36 52.59 1.02 53.64 1.02 0.79 5.45 0.79 5.36"/><polygon class="cls-639" points="0.79 5.28 51.53 1.02 52.59 1.02 0.79 5.36 0.79 5.28"/><polygon class="cls-640" points="0.79 5.19 50.48 1.02 51.53 1.02 0.79 5.28 0.79 5.19"/><polygon class="cls-641" points="0.79 5.1 49.43 1.02 50.48 1.02 0.79 5.19 0.79 5.1"/><polygon class="cls-642" points="0.79 5.01 48.37 1.02 49.43 1.02 0.79 5.1 0.79 5.01"/><polygon class="cls-643" points="0.79 4.92 47.32 1.02 48.37 1.02 0.79 5.01 0.79 4.92"/><polygon class="cls-644" points="0.79 4.83 46.26 1.02 47.32 1.02 0.79 4.92 0.79 4.83"/><polygon class="cls-645" points="0.79 4.74 45.21 1.02 46.26 1.02 0.79 4.83 0.79 4.74"/><polygon class="cls-646" points="0.79 4.66 44.16 1.02 45.21 1.02 0.79 4.74 0.79 4.66"/><polygon class="cls-647" points="0.79 4.57 43.1 1.02 44.16 1.02 0.79 4.66 0.79 4.57"/><polygon class="cls-647" points="43.1 1.02 0.79 4.57 0.79 1.02 43.1 1.02"/></g></g><g class="cls-648"><path class="cls-649" d="M31.92,25.87C26.87,24,21,28,17.34,34c-1.71,2.69-3.4,3-4.69.45-.32-.64-.65-1.28-1-1.89a10.93,10.93,0,0,1-.21-9.63C14.9,16,20.72,9.76,27.52,9.08c3.09-.5,6.81,4.52,7.38,9.11.17,1.12.31,2.23.42,3.3C35.65,25.85,34.08,26.7,31.92,25.87Z"/></g></g></svg>
